<svg xmlns="http://www.w3.org/2000/svg" xmlns:xlink="http://www.w3.org/1999/xlink" xmlns:lucid="lucid" width="1151.83" height="1159"><g transform="translate(-175.025 -48.99999999994924)" lucid:page-tab-id="0_0"><path d="M0 0h1760v1360H0z" fill="#fff"/><path d="M453.15 77c0-4.42 3.58-8 8-8h836.75c4.4 0 8 3.58 8 8v25.16c0 4.4-3.6 8-8 8H461.15c-4.42 0-8-3.6-8-8z" stroke="#000" stroke-opacity="0" stroke-width="2" fill="#fff" fill-opacity="0"/><use xlink:href="#a" transform="matrix(1,0,0,1,457.1465527853429,72.99999999994924) translate(164.86246913580248 25.782777777777778)"/><use xlink:href="#b" transform="matrix(1,0,0,1,457.1465527853429,72.99999999994924) translate(260.86493827160496 25.782777777777778)"/><use xlink:href="#c" transform="matrix(1,0,0,1,457.1465527853429,72.99999999994924) translate(282.7167901234568 25.782777777777778)"/><use xlink:href="#d" transform="matrix(1,0,0,1,457.1465527853429,72.99999999994924) translate(298.6686419753087 25.782777777777778)"/><use xlink:href="#e" transform="matrix(1,0,0,1,457.1465527853429,72.99999999994924) translate(362.6217283950617 25.782777777777778)"/><use xlink:href="#f" transform="matrix(1,0,0,1,457.1465527853429,72.99999999994924) translate(429.56123456790124 25.782777777777778)"/><use xlink:href="#g" transform="matrix(1,0,0,1,457.1465527853429,72.99999999994924) translate(468.74888888888887 25.782777777777778)"/><use xlink:href="#c" transform="matrix(1,0,0,1,457.1465527853429,72.99999999994924) translate(535.6155555555556 25.782777777777778)"/><use xlink:href="#h" transform="matrix(1,0,0,1,457.1465527853429,72.99999999994924) translate(551.5674074074075 25.782777777777778)"/><path d="M705.9 108.8h360.53M705.92 108.8h-1.03M1066.4 108.8h1.03" stroke="#b2b2b2" stroke-width="2" fill="none"/><path d="M453.15 118.16c0-4.42 3.58-8 8-8h837.7c4.42 0 8 3.58 8 8V121c0 4.42-3.58 8-8 8h-837.7c-4.42 0-8-3.58-8-8z" stroke="#000" stroke-opacity="0" stroke-width="2" fill="#fff" fill-opacity="0"/><use xlink:href="#i" transform="matrix(1,0,0,1,457.1465527853434,114.15522395673163) translate(303.7909156378601 14.917037037037037)"/><use xlink:href="#j" transform="matrix(1,0,0,1,457.1465527853434,114.15522395673163) translate(344.53854938271604 14.917037037037037)"/><use xlink:href="#k" transform="matrix(1,0,0,1,457.1465527853434,114.15522395673163) translate(397.94811728395064 14.917037037037037)"/><use xlink:href="#l" transform="matrix(1,0,0,1,457.1465527853434,114.15522395673163) translate(410.39760288065844 14.917037037037037)"/><use xlink:href="#m" transform="matrix(1,0,0,1,457.1465527853434,114.15522395673163) translate(489.343487654321 14.917037037037037)"/><use xlink:href="#n" transform="matrix(1,0,0,1,457.1465527853434,114.15522395673163) translate(514.8373148148148 14.917037037037037)"/><path d="M698.56 146.5c0-4.42 3.6-8 8-8h544.48c4.42 0 8 3.58 8 8v376c0 4.42-3.58 8-8 8H706.56c-4.4 0-8-3.58-8-8z" fill="#fff"/><path d="M698.56 210.5h560.48v32H698.56zM698.56 274.5h560.48v32H698.56zM698.56 338.5h560.48v32H698.56zM698.56 402.5h560.48v32H698.56zM698.56 466.5h560.48v32H698.56z" fill="#e6e6e6"/><path d="M698.56 138.5h560.48v40H698.56z" fill="#ccc"/><path d="M698.56 146.5c0-4.42 3.6-8 8-8h544.48c4.42 0 8 3.58 8 8v376c0 4.42-3.58 8-8 8H706.56c-4.4 0-8-3.58-8-8zM698.56 178.5h560.48M978.8 178.5v352" stroke="#333" fill="none"/><use xlink:href="#o" transform="matrix(1,0,0,1,708.5639210582012,138.50000000003283) translate(222.525 14.4)"/><use xlink:href="#p" transform="matrix(1,0,0,1,703.5639210582012,181.00000000003283) translate(83.125 14.4)"/><use xlink:href="#q" transform="matrix(1,0,0,1,983.803267548501,181.00000000003283) translate(88.05 14.4)"/><use xlink:href="#r" transform="matrix(1,0,0,1,703.5639210582012,213.00000000003283) translate(106.05 14.4)"/><use xlink:href="#s" transform="matrix(1,0,0,1,983.803267548501,213.00000000003283) translate(92.575 14.4)"/><use xlink:href="#t" transform="matrix(1,0,0,1,703.5639210582012,245.00000000003283) translate(104.025 14.4)"/><use xlink:href="#s" transform="matrix(1,0,0,1,983.803267548501,245.00000000003283) translate(92.575 14.4)"/><use xlink:href="#u" transform="matrix(1,0,0,1,703.5639210582012,277.00000000003286) translate(104.075 14.4)"/><use xlink:href="#s" transform="matrix(1,0,0,1,983.803267548501,277.00000000003286) translate(92.575 14.4)"/><use xlink:href="#v" transform="matrix(1,0,0,1,703.5639210582012,309.00000000003286) translate(96.07499999999999 14.4)"/><use xlink:href="#w" transform="matrix(1,0,0,1,983.803267548501,309.00000000003286) translate(71.94999999999999 14.4)"/><use xlink:href="#x" transform="matrix(1,0,0,1,703.5639210582012,341.00000000003286) translate(88.05 14.4)"/><use xlink:href="#y" transform="matrix(1,0,0,1,983.803267548501,341.00000000003286) translate(96.025 14.4)"/><use xlink:href="#z" transform="matrix(1,0,0,1,703.5639210582012,373.00000000003286) translate(117.05 14.4)"/><use xlink:href="#s" transform="matrix(1,0,0,1,983.803267548501,373.00000000003286) translate(92.575 14.4)"/><use xlink:href="#A" transform="matrix(1,0,0,1,703.5639210582012,405.00000000003286) translate(104.55 14.4)"/><use xlink:href="#s" transform="matrix(1,0,0,1,983.803267548501,405.00000000003286) translate(92.575 14.4)"/><use xlink:href="#B" transform="matrix(1,0,0,1,703.5639210582012,437.00000000003286) translate(90.525 14.4)"/><use xlink:href="#s" transform="matrix(1,0,0,1,983.803267548501,437.00000000003286) translate(92.575 14.4)"/><use xlink:href="#C" transform="matrix(1,0,0,1,703.5639210582012,469.00000000003286) translate(118.025 17.1)"/><use xlink:href="#q" transform="matrix(1,0,0,1,983.803267548501,469.00000000003286) translate(88.05 17.1)"/><use xlink:href="#D" transform="matrix(1,0,0,1,703.5639210582012,501.00000000003286) translate(110.525 17.1)"/><use xlink:href="#q" transform="matrix(1,0,0,1,983.803267548501,501.00000000003286) translate(88.05 17.1)"/><path d="M200 118.16c0-4.42 3.58-8 8-8h184c4.42 0 8 3.58 8 8v184c0 4.4-3.58 8-8 8H208c-4.42 0-8-3.6-8-8z" fill="#fff"/><path d="M200 182.16h200v32H200zM200 246.16h200v32H200z" fill="#e6e6e6"/><path d="M200 110.16h200v40H200z" fill="#ccc"/><path d="M200 118.16c0-4.42 3.58-8 8-8h184c4.42 0 8 3.58 8 8v184c0 4.4-3.58 8-8 8H208c-4.42 0-8-3.6-8-8zM200 150.16h200M300 150.16v160" stroke="#333" fill="none"/><use xlink:href="#E" transform="matrix(1,0,0,1,210,110.15522395661522) translate(58.025 23.6)"/><use xlink:href="#F" transform="matrix(1,0,0,1,205,152.6552239566152) translate(13.049999999999997 17.1)"/><use xlink:href="#s" transform="matrix(1,0,0,1,305,152.6552239566152) translate(2.075000000000003 17.1)"/><use xlink:href="#G" transform="matrix(1,0,0,1,205,184.6552239566152) translate(0 17.1)"/><use xlink:href="#s" transform="matrix(1,0,0,1,305,184.6552239566152) translate(2.075000000000003 17.1)"/><use xlink:href="#H" transform="matrix(1,0,0,1,205,216.6552239566152) translate(0 17.1)"/><use xlink:href="#s" transform="matrix(1,0,0,1,305,216.6552239566152) translate(2.075000000000003 17.1)"/><use xlink:href="#I" transform="matrix(1,0,0,1,205,248.6552239566152) translate(17.025 17.1)"/><use xlink:href="#s" transform="matrix(1,0,0,1,305,248.6552239566152) translate(2.075000000000003 17.1)"/><use xlink:href="#J" transform="matrix(1,0,0,1,205,280.6552239566152) translate(26.549999999999997 17.1)"/><use xlink:href="#s" transform="matrix(1,0,0,1,305,280.6552239566152) translate(2.075000000000003 17.1)"/><path d="M420.5 166.16h116.78c6.63 0 12 5.37 12 12v36.34c0 6.63 5.37 12 12 12h117.37" stroke="#333" fill="none"/><path d="M420.5 176.16v-20M400.5 166.16h20M697.84 236.5l-20-10 20-10M697.84 226.5h-20" stroke="#333" fill="#fff"/><path d="M200 370.08c0-4.42 3.58-8 8-8h184c4.42 0 8 3.58 8 8v184c0 4.42-3.58 8-8 8H208c-4.42 0-8-3.58-8-8z" fill="#fff"/><path d="M200 434.08h200v32H200zM200 498.08h200v32H200z" fill="#e6e6e6"/><path d="M200 362.08h200v40H200z" fill="#ccc"/><path d="M200 370.08c0-4.42 3.58-8 8-8h184c4.42 0 8 3.58 8 8v184c0 4.42-3.58 8-8 8H208c-4.42 0-8-3.58-8-8zM200 402.08h200M300 402.08v160" stroke="#333" fill="none"/><use xlink:href="#K" transform="matrix(1,0,0,1,210,362.0776119782747) translate(56 14.4)"/><use xlink:href="#L" transform="matrix(1,0,0,1,205,404.5776119782747) translate(10.599999999999994 14.4)"/><use xlink:href="#s" transform="matrix(1,0,0,1,305,404.5776119782747) translate(2.075000000000003 14.4)"/><use xlink:href="#u" transform="matrix(1,0,0,1,205,436.5776119782747) translate(13.575 14.4)"/><use xlink:href="#s" transform="matrix(1,0,0,1,305,436.5776119782747) translate(2.075000000000003 14.4)"/><use xlink:href="#M" transform="matrix(1,0,0,1,205,468.5776119782747) translate(31.05 14.4)"/><use xlink:href="#s" transform="matrix(1,0,0,1,305,468.5776119782747) translate(2.075000000000003 14.4)"/><use xlink:href="#N" transform="matrix(1,0,0,1,205,500.5776119782747) translate(27.525 14.4)"/><use xlink:href="#O" transform="matrix(1,0,0,1,305,500.5776119782747) translate(-2.450000000000003 14.4)"/><use xlink:href="#P" transform="matrix(1,0,0,1,205,532.5776119782747) translate(12.549999999999997 14.4)"/><use xlink:href="#Q" transform="matrix(1,0,0,1,305,532.5776119782747) translate(-2.9250000000000043 14.4)"/><path d="M420.5 418.08h42.75c6.63 0 12-5.37 12-12V270.5c0-6.63 5.37-12 12-12h191.4" stroke="#333" fill="none"/><path d="M420.5 428.08v-20M400.5 418.08h20M697.84 268.5l-20-10 20-10M697.84 258.5h-20" stroke="#333" fill="#fff"/><path d="M200 609c0-4.42 3.58-8 8-8h184c4.42 0 8 3.58 8 8v184c0 4.42-3.58 8-8 8H208c-4.42 0-8-3.58-8-8z" fill="#fff"/><path d="M200 673h200v32H200zM200 737h200v32H200z" fill="#e6e6e6"/><path d="M200 601h200v40H200z" fill="#ccc"/><path d="M200 609c0-4.42 3.58-8 8-8h184c4.42 0 8 3.58 8 8v184c0 4.42-3.58 8-8 8H208c-4.42 0-8-3.58-8-8zM200 641h200M300 641v160" stroke="#333" fill="none"/><use xlink:href="#R" transform="matrix(1,0,0,1,210,600.9999999999343) translate(56.05 14.4)"/><use xlink:href="#S" transform="matrix(1,0,0,1,205,643.4999999999343) translate(10.074999999999996 14.4)"/><use xlink:href="#s" transform="matrix(1,0,0,1,305,643.4999999999343) translate(2.075000000000003 14.4)"/><use xlink:href="#T" transform="matrix(1,0,0,1,205,675.4999999999343) translate(22.525 14.4)"/><use xlink:href="#s" transform="matrix(1,0,0,1,305,675.4999999999343) translate(2.075000000000003 14.4)"/><use xlink:href="#A" transform="matrix(1,0,0,1,205,707.4999999999343) translate(14.049999999999997 14.4)"/><use xlink:href="#s" transform="matrix(1,0,0,1,305,707.4999999999343) translate(2.075000000000003 14.4)"/><use xlink:href="#U" transform="matrix(1,0,0,1,205,739.4999999999343) translate(16.05 14.4)"/><use xlink:href="#V" transform="matrix(1,0,0,1,305,739.4999999999343) translate(-2.9250000000000043 14.4)"/><use xlink:href="#W" transform="matrix(1,0,0,1,205,771.4999999999343) translate(8.549999999999997 14.4)"/><use xlink:href="#V" transform="matrix(1,0,0,1,305,771.4999999999343) translate(-2.9250000000000043 14.4)"/><path d="M200 866c0-4.42 3.58-8 8-8h184c4.42 0 8 3.58 8 8v301c0 4.42-3.58 8-8 8H208c-4.42 0-8-3.58-8-8z" fill="#fff"/><path d="M200 951h200v32H200zM200 1015h200v32H200zM200 1079h200v32H200zM200 1143h200v32H200z" fill="#e6e6e6"/><path d="M200 858h200v40H200z" fill="#ccc"/><path d="M200 866c0-4.42 3.58-8 8-8h184c4.42 0 8 3.58 8 8v301c0 4.42-3.58 8-8 8H208c-4.42 0-8-3.58-8-8zM200 898h200M300 898v277" stroke="#333" fill="none"/><use xlink:href="#X" transform="matrix(1,0,0,1,210,858) translate(63.05 14.4)"/><use xlink:href="#Y" transform="matrix(1,0,0,1,205,900.5) translate(2.0749999999999957 14.4)"/><use xlink:href="#Z" transform="matrix(1,0,0,1,305,900.5) translate(0.9249999999999972 14.4)"/><use xlink:href="#aa" transform="matrix(1,0,0,1,305,900.5) translate(25.525 36)"/><use xlink:href="#ab" transform="matrix(1,0,0,1,205,953.5) translate(27.025 14.4)"/><use xlink:href="#O" transform="matrix(1,0,0,1,305,953.5) translate(-2.450000000000003 14.4)"/><use xlink:href="#ac" transform="matrix(1,0,0,1,205,985.5) translate(30.5 14.4)"/><use xlink:href="#O" transform="matrix(1,0,0,1,305,985.5) translate(-2.450000000000003 14.4)"/><use xlink:href="#ad" transform="matrix(1,0,0,1,205,1017.5) translate(24.025 14.4)"/><use xlink:href="#O" transform="matrix(1,0,0,1,305,1017.5) translate(-2.450000000000003 14.4)"/><use xlink:href="#D" transform="matrix(1,0,0,1,205,1049.5) translate(20.025 14.4)"/><use xlink:href="#O" transform="matrix(1,0,0,1,305,1049.5) translate(-2.450000000000003 14.4)"/><use xlink:href="#C" transform="matrix(1,0,0,1,205,1081.5) translate(27.525 14.4)"/><use xlink:href="#O" transform="matrix(1,0,0,1,305,1081.5) translate(-2.450000000000003 14.4)"/><use xlink:href="#ae" transform="matrix(1,0,0,1,205,1113.5) translate(9.524999999999999 14.4)"/><use xlink:href="#O" transform="matrix(1,0,0,1,305,1113.5) translate(-2.450000000000003 14.4)"/><use xlink:href="#af" transform="matrix(1,0,0,1,205,1145.5) translate(-7.975000000000001 17.1)"/><use xlink:href="#ag" transform="matrix(1,0,0,1,305,1145.5) translate(2.075000000000003 17.1)"/><path d="M420.5 924.5H598c6.63 0 12-5.37 12-12v-578c0-6.63 5.37-12 12-12h56.65" stroke="#333" fill="none"/><path d="M420.5 934.5v-20M400.5 924.5h20M697.84 332.5l-20-10 20-10M697.84 322.5h-20" stroke="#333" fill="#fff"/><path d="M420.5 657h116.78c6.63 0 12-5.37 12-12V302.5c0-6.63 5.37-12 12-12h117.37" stroke="#333" fill="none"/><path d="M420.5 667v-20M400.5 657h20M697.84 300.5l-20-10 20-10M697.84 290.5h-20" stroke="#333" fill="#fff"/><path d="M698.56 548c0-4.42 3.6-8 8-8h244c4.42 0 8 3.58 8 8v632c0 4.42-3.58 8-8 8h-244c-4.4 0-8-3.58-8-8z" fill="#fff"/><path d="M698.56 548c0-4.42 3.6-8 8-8h244c4.42 0 8 3.58 8 8v632c0 4.42-3.58 8-8 8h-244c-4.4 0-8-3.58-8-8zM698.56 580h260M828.56 580v608" stroke="#333" fill="none"/><use xlink:href="#ah" transform="matrix(1,0,0,1,708.5639210582012,540) translate(38.099999999999994 14.4)"/><use xlink:href="#ai" transform="matrix(1,0,0,1,703.5639210582012,582.5) translate(40.55 14.4)"/><use xlink:href="#s" transform="matrix(1,0,0,1,833.5639210582012,582.5) translate(17.075000000000003 14.4)"/><use xlink:href="#aj" transform="matrix(1,0,0,1,703.5639210582012,614.5) translate(42.5 14.4)"/><use xlink:href="#s" transform="matrix(1,0,0,1,833.5639210582012,614.5) translate(17.075000000000003 14.4)"/><use xlink:href="#ak" transform="matrix(1,0,0,1,703.5639210582012,646.5) translate(21.6 14.4)"/><use xlink:href="#s" transform="matrix(1,0,0,1,833.5639210582012,646.5) translate(17.075000000000003 14.4)"/><use xlink:href="#al" transform="matrix(1,0,0,1,703.5639210582012,678.5) translate(32.025 14.4)"/><use xlink:href="#s" transform="matrix(1,0,0,1,833.5639210582012,678.5) translate(17.075000000000003 14.4)"/><use xlink:href="#am" transform="matrix(1,0,0,1,703.5639210582012,710.5) translate(3.5749999999999957 14.4)"/><use xlink:href="#y" transform="matrix(1,0,0,1,833.5639210582012,710.5) translate(20.525 14.4)"/><use xlink:href="#an" transform="matrix(1,0,0,1,703.5639210582012,742.5) translate(22.075000000000003 14.4)"/><use xlink:href="#s" transform="matrix(1,0,0,1,833.5639210582012,742.5) translate(17.075000000000003 14.4)"/><use xlink:href="#ao" transform="matrix(1,0,0,1,703.5639210582012,774.5) translate(35.525 14.4)"/><use xlink:href="#Q" transform="matrix(1,0,0,1,833.5639210582012,774.5) translate(12.074999999999996 14.4)"/><use xlink:href="#z" transform="matrix(1,0,0,1,703.5639210582012,806.5) translate(41.55 14.4)"/><use xlink:href="#s" transform="matrix(1,0,0,1,833.5639210582012,806.5) translate(17.075000000000003 14.4)"/><use xlink:href="#A" transform="matrix(1,0,0,1,703.5639210582012,838.5) translate(29.049999999999997 14.4)"/><use xlink:href="#s" transform="matrix(1,0,0,1,833.5639210582012,838.5) translate(17.075000000000003 14.4)"/><use xlink:href="#ap" transform="matrix(1,0,0,1,703.5639210582012,870.5) translate(30.025 14.4)"/><use xlink:href="#s" transform="matrix(1,0,0,1,833.5639210582012,870.5) translate(17.075000000000003 14.4)"/><use xlink:href="#aq" transform="matrix(1,0,0,1,703.5639210582012,902.5) translate(40 14.4)"/><use xlink:href="#s" transform="matrix(1,0,0,1,833.5639210582012,902.5) translate(17.075000000000003 14.4)"/><use xlink:href="#ar" transform="matrix(1,0,0,1,703.5639210582012,934.5) translate(15.600000000000001 14.4)"/><use xlink:href="#Q" transform="matrix(1,0,0,1,833.5639210582012,934.5) translate(12.074999999999996 14.4)"/><use xlink:href="#as" transform="matrix(1,0,0,1,703.5639210582012,966.5) translate(22.025 14.4)"/><use xlink:href="#y" transform="matrix(1,0,0,1,833.5639210582012,966.5) translate(20.525 14.4)"/><use xlink:href="#at" transform="matrix(1,0,0,1,703.5639210582012,998.5) translate(40.5 14.4)"/><use xlink:href="#s" transform="matrix(1,0,0,1,833.5639210582012,998.5) translate(17.075000000000003 14.4)"/><use xlink:href="#au" transform="matrix(1,0,0,1,703.5639210582012,1030.5) translate(36 14.4)"/><use xlink:href="#y" transform="matrix(1,0,0,1,833.5639210582012,1030.5) translate(20.525 14.4)"/><use xlink:href="#av" transform="matrix(1,0,0,1,703.5639210582012,1062.5) translate(53 14.4)"/><use xlink:href="#y" transform="matrix(1,0,0,1,833.5639210582012,1062.5) translate(20.525 14.4)"/><use xlink:href="#aw" transform="matrix(1,0,0,1,703.5639210582012,1094.5) translate(19.025 14.4)"/><use xlink:href="#s" transform="matrix(1,0,0,1,833.5639210582012,1094.5) translate(17.075000000000003 14.4)"/><use xlink:href="#ax" transform="matrix(1,0,0,1,703.5639210582012,1126.5) translate(35.025 14.4)"/><use xlink:href="#s" transform="matrix(1,0,0,1,833.5639210582012,1126.5) translate(17.075000000000003 14.4)"/><use xlink:href="#ay" transform="matrix(1,0,0,1,703.5639210582012,1158.5) translate(6.574999999999996 17.1)"/><use xlink:href="#az" transform="matrix(1,0,0,1,833.5639210582012,1158.5) translate(-3.5500000000000043 17.1)"/><path d="M977.13 548c0-4.42 3.58-8 8-8h264c4.42 0 8 3.58 8 8v344c0 4.42-3.58 8-8 8h-264c-4.42 0-8-3.58-8-8z" fill="#fff"/><path d="M977.13 548c0-4.42 3.58-8 8-8h264c4.42 0 8 3.58 8 8v344c0 4.42-3.58 8-8 8h-264c-4.42 0-8-3.58-8-8zM977.13 580h280M1117.13 580v320" stroke="#333" fill="none"/><use xlink:href="#aA" transform="matrix(1,0,0,1,987.1278421164025,540) translate(36.075 14.4)"/><use xlink:href="#aB" transform="matrix(1,0,0,1,982.1278421164025,582.5) translate(18.525 14.4)"/><use xlink:href="#q" transform="matrix(1,0,0,1,1122.1278421164025,582.5) translate(17.549999999999997 14.4)"/><use xlink:href="#aC" transform="matrix(1,0,0,1,982.1278421164025,614.5) translate(33.575 14.4)"/><use xlink:href="#s" transform="matrix(1,0,0,1,1122.1278421164025,614.5) translate(22.075000000000003 14.4)"/><use xlink:href="#aD" transform="matrix(1,0,0,1,982.1278421164025,646.5) translate(11.600000000000001 14.4)"/><use xlink:href="#V" transform="matrix(1,0,0,1,1122.1278421164025,646.5) translate(17.074999999999996 14.4)"/><use xlink:href="#aE" transform="matrix(1,0,0,1,982.1278421164025,678.5) translate(4.100000000000001 14.4)"/><g><use xlink:href="#Q" transform="matrix(1,0,0,1,1122.1278421164025,678.5) translate(17.074999999999996 14.4)"/></g><g><use xlink:href="#aF" transform="matrix(1,0,0,1,982.1278421164025,710.5) translate(9.600000000000001 14.4)"/></g><g><use xlink:href="#s" transform="matrix(1,0,0,1,1122.1278421164025,710.5) translate(22.075000000000003 14.4)"/></g><g><use xlink:href="#aG" transform="matrix(1,0,0,1,982.1278421164025,742.5) translate(18.074999999999996 14.4)"/></g><g><use xlink:href="#s" transform="matrix(1,0,0,1,1122.1278421164025,742.5) translate(22.075000000000003 14.4)"/></g><g><use xlink:href="#aH" transform="matrix(1,0,0,1,982.1278421164025,774.5) translate(33.525 14.4)"/></g><g><use xlink:href="#s" transform="matrix(1,0,0,1,1122.1278421164025,774.5) translate(22.075000000000003 14.4)"/></g><g><use xlink:href="#M" transform="matrix(1,0,0,1,982.1278421164025,806.5) translate(51.05 14.4)"/></g><g><use xlink:href="#s" transform="matrix(1,0,0,1,1122.1278421164025,806.5) translate(22.075000000000003 14.4)"/></g><g><use xlink:href="#aI" transform="matrix(1,0,0,1,982.1278421164025,838.5) translate(32.55 14.4)"/></g><g><use xlink:href="#Q" transform="matrix(1,0,0,1,1122.1278421164025,838.5) translate(17.074999999999996 14.4)"/></g><g><use xlink:href="#C" transform="matrix(1,0,0,1,982.1278421164025,870.5) translate(47.525 14.4)"/></g><g><use xlink:href="#O" transform="matrix(1,0,0,1,1122.1278421164025,870.5) translate(17.549999999999997 14.4)"/></g><defs><path fill="#b2b2b2" d="M24-248c93 1 206-16 204 79-1 75-69 88-152 82V0H24v-248zm52 121c47 0 100 7 100-41 0-47-54-39-100-39v80" id="aJ"/><path fill="#b2b2b2" d="M135-150c-39-12-60 13-60 57V0H25l-1-190h47c2 13-1 29 3 40 6-28 27-53 61-41v41" id="aK"/><path fill="#b2b2b2" d="M110-194c64 0 96 36 96 99 0 64-35 99-97 99-61 0-95-36-95-99 0-62 34-99 96-99zm-1 164c35 0 45-28 45-65 0-40-10-65-43-65-34 0-45 26-45 65 0 36 10 65 43 65" id="aL"/><path fill="#b2b2b2" d="M25-224v-37h50v37H25zM75 22c2 45-34 59-81 51V38c22 5 31-5 31-27v-201h50V22" id="aM"/><path fill="#b2b2b2" d="M185-48c-13 30-37 53-82 52C43 2 14-33 14-96s30-98 90-98c62 0 83 45 84 108H66c0 31 8 55 39 56 18 0 30-7 34-22zm-45-69c5-46-57-63-70-21-2 6-4 13-4 21h74" id="aN"/><path fill="#b2b2b2" d="M190-63c-7 42-38 67-86 67-59 0-84-38-90-98-12-110 154-137 174-36l-49 2c-2-19-15-32-35-32-30 0-35 28-38 64-6 74 65 87 74 30" id="aO"/><path fill="#b2b2b2" d="M115-3C79 11 28 4 28-45v-112H4v-33h27l15-45h31v45h36v33H77v99c-1 23 16 31 38 25v30" id="aP"/><g id="a"><use transform="matrix(0.0728395061728395,0,0,0.0728395061728395,0,0)" xlink:href="#aJ"/><use transform="matrix(0.0728395061728395,0,0,0.0728395061728395,17.48148148148148,0)" xlink:href="#aK"/><use transform="matrix(0.0728395061728395,0,0,0.0728395061728395,27.679012345679013,0)" xlink:href="#aL"/><use transform="matrix(0.0728395061728395,0,0,0.0728395061728395,43.63086419753086,0)" xlink:href="#aM"/><use transform="matrix(0.0728395061728395,0,0,0.0728395061728395,50.91481481481481,0)" xlink:href="#aN"/><use transform="matrix(0.0728395061728395,0,0,0.0728395061728395,65.48271604938272,0)" xlink:href="#aO"/><use transform="matrix(0.0728395061728395,0,0,0.0728395061728395,80.05061728395061,0)" xlink:href="#aP"/></g><path fill="#b2b2b2" d="M165-50V0h-47v-50H5v-38l105-160h55v161h33v37h-33zm-47-37l2-116L46-87h72" id="aQ"/><use transform="matrix(0.0728395061728395,0,0,0.0728395061728395,0,0)" xlink:href="#aQ" id="b"/><path fill="#b2b2b2" d="M14-72v-43h91v43H14" id="aR"/><use transform="matrix(0.0728395061728395,0,0,0.0728395061728395,0,0)" xlink:href="#aR" id="c"/><path fill="#b2b2b2" d="M24-248c120-7 223 5 221 122C244-46 201 0 124 0H24v-248zM76-40c74 7 117-18 117-86 0-67-45-88-117-82v168" id="aS"/><path fill="#b2b2b2" d="M133-34C117-15 103 5 69 4 32 3 11-16 11-54c-1-60 55-63 116-61 1-26-3-47-28-47-18 1-26 9-28 27l-52-2c7-38 36-58 82-57s74 22 75 68l1 82c-1 14 12 18 25 15v27c-30 8-71 5-69-32zm-48 3c29 0 43-24 42-57-32 0-66-3-65 30 0 17 8 27 23 27" id="aT"/><g id="d"><use transform="matrix(0.0728395061728395,0,0,0.0728395061728395,0,0)" xlink:href="#aS"/><use transform="matrix(0.0728395061728395,0,0,0.0728395061728395,18.86543209876543,0)" xlink:href="#aT"/><use transform="matrix(0.0728395061728395,0,0,0.0728395061728395,33.43333333333333,0)" xlink:href="#aP"/><use transform="matrix(0.0728395061728395,0,0,0.0728395061728395,42.10123456790124,0)" xlink:href="#aT"/></g><path fill="#b2b2b2" d="M24 0v-248h52v208h133V0H24" id="aU"/><path fill="#b2b2b2" d="M147 0L96-86 75-71V0H25v-261h50v150l67-79h53l-66 74L201 0h-54" id="aV"/><g id="e"><use transform="matrix(0.0728395061728395,0,0,0.0728395061728395,0,0)" xlink:href="#aU"/><use transform="matrix(0.0728395061728395,0,0,0.0728395061728395,15.95185185185185,0)" xlink:href="#aT"/><use transform="matrix(0.0728395061728395,0,0,0.0728395061728395,30.51975308641975,0)" xlink:href="#aV"/><use transform="matrix(0.0728395061728395,0,0,0.0728395061728395,45.08765432098765,0)" xlink:href="#aN"/></g><path fill="#b2b2b2" d="M135-194c87-1 58 113 63 194h-50c-7-57 23-157-34-157-59 0-34 97-39 157H25l-1-190h47c2 12-1 28 3 38 12-26 28-41 61-42" id="aW"/><g id="f"><use transform="matrix(0.0728395061728395,0,0,0.0728395061728395,0,0)" xlink:href="#aL"/><use transform="matrix(0.0728395061728395,0,0,0.0728395061728395,15.95185185185185,0)" xlink:href="#aW"/></g><path fill="#b2b2b2" d="M199 0l-22-63H83L61 0H9l90-248h61L250 0h-51zm-33-102l-36-108c-10 38-24 72-36 108h72" id="aX"/><path fill="#b2b2b2" d="M275 0h-61l-44-196L126 0H64L0-248h53L97-49l45-199h58l43 199 44-199h52" id="aY"/><path fill="#b2b2b2" d="M169-182c-1-43-94-46-97-3 18 66 151 10 154 114 3 95-165 93-204 36-6-8-10-19-12-30l50-8c3 46 112 56 116 5-17-69-150-10-154-114-4-87 153-88 188-35 5 8 8 18 10 28" id="aZ"/><g id="g"><use transform="matrix(0.0728395061728395,0,0,0.0728395061728395,0,0)" xlink:href="#aX"/><use transform="matrix(0.0728395061728395,0,0,0.0728395061728395,17.40864197530864,0)" xlink:href="#aY"/><use transform="matrix(0.0728395061728395,0,0,0.0728395061728395,42.10123456790124,0)" xlink:href="#aZ"/></g><path fill="#b2b2b2" d="M135-194c53 0 70 44 70 98 0 56-19 98-73 100-31 1-45-17-59-34 3 33 2 69 2 105H25l-1-265h48c2 10 0 23 3 31 11-24 29-35 60-35zM114-30c33 0 39-31 40-66 0-38-9-64-40-64-56 0-55 130 0 130" id="ba"/><path fill="#b2b2b2" d="M25-224v-37h50v37H25zM25 0v-190h50V0H25" id="bb"/><path fill="#b2b2b2" d="M121-226c-27-7-43 5-38 36h38v33H83V0H34v-157H6v-33h28c-9-59 32-81 87-68v32" id="bc"/><path fill="#b2b2b2" d="M123 10C108 53 80 86 19 72V37c35 8 53-11 59-39L3-190h52l48 148c12-52 28-100 44-148h51" id="bd"/><path fill="#b2b2b2" d="M88-194c31-1 46 15 58 34l-1-101h50l1 261h-48c-2-10 0-23-3-31C134-8 116 4 84 4 32 4 16-41 15-95c0-56 19-97 73-99zm17 164c33 0 40-30 41-66 1-37-9-64-41-64s-38 30-39 65c0 43 13 65 39 65" id="be"/><path fill="#b2b2b2" d="M135-194c52 0 70 43 70 98 0 56-19 99-73 100-30 1-46-15-58-35L72 0H24l1-261h50v104c11-23 29-37 60-37zM114-30c31 0 40-27 40-66 0-37-7-63-39-63s-41 28-41 65c0 36 8 64 40 64" id="bf"/><g id="h"><use transform="matrix(0.0728395061728395,0,0,0.0728395061728395,0,0)" xlink:href="#aZ"/><use transform="matrix(0.0728395061728395,0,0,0.0728395061728395,17.48148148148148,0)" xlink:href="#ba"/><use transform="matrix(0.0728395061728395,0,0,0.0728395061728395,33.43333333333333,0)" xlink:href="#aT"/><use transform="matrix(0.0728395061728395,0,0,0.0728395061728395,48.00123456790123,0)" xlink:href="#aK"/><use transform="matrix(0.0728395061728395,0,0,0.0728395061728395,58.19876543209875,0)" xlink:href="#aV"/><use transform="matrix(0.0728395061728395,0,0,0.0728395061728395,72.76666666666667,0)" xlink:href="#bb"/><use transform="matrix(0.0728395061728395,0,0,0.0728395061728395,80.05061728395061,0)" xlink:href="#bc"/><use transform="matrix(0.0728395061728395,0,0,0.0728395061728395,88.71851851851852,0)" xlink:href="#bd"/><use transform="matrix(0.0728395061728395,0,0,0.0728395061728395,103.28641975308642,0)" xlink:href="#be"/><use transform="matrix(0.0728395061728395,0,0,0.0728395061728395,119.23827160493828,0)" xlink:href="#bf"/></g><path fill="#b2b2b2" d="M30-248c87 1 191-15 191 75 0 78-77 80-158 76V0H30v-248zm33 125c57 0 124 11 124-50 0-59-68-47-124-48v98" id="bg"/><path fill="#b2b2b2" d="M100-194c63 0 86 42 84 106H49c0 40 14 67 53 68 26 1 43-12 49-29l28 8c-11 28-37 45-77 45C44 4 14-33 15-96c1-61 26-98 85-98zm52 81c6-60-76-77-97-28-3 7-6 17-6 28h103" id="bh"/><path fill="#b2b2b2" d="M59-47c-2 24 18 29 38 22v24C64 9 27 4 27-40v-127H5v-23h24l9-43h21v43h35v23H59v120" id="bi"/><path fill="#b2b2b2" d="M114-163C36-179 61-72 57 0H25l-1-190h30c1 12-1 29 2 39 6-27 23-49 58-41v29" id="bj"/><g id="i"><use transform="matrix(0.04248971193415638,0,0,0.04248971193415638,0,0)" xlink:href="#bg"/><use transform="matrix(0.04248971193415638,0,0,0.04248971193415638,10.19753086419753,0)" xlink:href="#bh"/><use transform="matrix(0.04248971193415638,0,0,0.04248971193415638,18.695473251028805,0)" xlink:href="#bi"/><use transform="matrix(0.04248971193415638,0,0,0.04248971193415638,22.944444444444443,0)" xlink:href="#bh"/><use transform="matrix(0.04248971193415638,0,0,0.04248971193415638,31.44238683127572,0)" xlink:href="#bj"/></g><path fill="#b2b2b2" d="M266 0h-40l-56-210L115 0H75L2-248h35L96-30l15-64 43-154h32l59 218 59-218h35" id="bk"/><path fill="#b2b2b2" d="M24-231v-30h32v30H24zM24 0v-190h32V0H24" id="bl"/><path fill="#b2b2b2" d="M135-143c-3-34-86-38-87 0 15 53 115 12 119 90S17 21 10-45l28-5c4 36 97 45 98 0-10-56-113-15-118-90-4-57 82-63 122-42 12 7 21 19 24 35" id="bm"/><path fill="#b2b2b2" d="M24 0v-261h32V0H24" id="bn"/><g id="j"><use transform="matrix(0.04248971193415638,0,0,0.04248971193415638,0,0)" xlink:href="#bk"/><use transform="matrix(0.04248971193415638,0,0,0.04248971193415638,14.404012345679012,0)" xlink:href="#bl"/><use transform="matrix(0.04248971193415638,0,0,0.04248971193415638,17.760699588477365,0)" xlink:href="#bm"/><use transform="matrix(0.04248971193415638,0,0,0.04248971193415638,25.408847736625514,0)" xlink:href="#bm"/><use transform="matrix(0.04248971193415638,0,0,0.04248971193415638,33.05699588477366,0)" xlink:href="#bh"/><use transform="matrix(0.04248971193415638,0,0,0.04248971193415638,41.55493827160494,0)" xlink:href="#bn"/></g><path fill="#b2b2b2" d="M32 76v-337h29V76H32" id="bo"/><use transform="matrix(0.04248971193415638,0,0,0.04248971193415638,0,0)" xlink:href="#bo" id="k"/><path fill="#b2b2b2" d="M185-189c-5-48-123-54-124 2 14 75 158 14 163 119 3 78-121 87-175 55-17-10-28-26-33-46l33-7c5 56 141 63 141-1 0-78-155-14-162-118-5-82 145-84 179-34 5 7 8 16 11 25" id="bp"/><path fill="#b2b2b2" d="M115-194c55 1 70 41 70 98S169 2 115 4C84 4 66-9 55-30l1 105H24l-1-265h31l2 30c10-21 28-34 59-34zm-8 174c40 0 45-34 45-75s-6-73-45-74c-42 0-51 32-51 76 0 43 10 73 51 73" id="bq"/><path fill="#b2b2b2" d="M210-169c-67 3-38 105-44 169h-31v-121c0-29-5-50-35-48C34-165 62-65 56 0H25l-1-190h30c1 10-1 24 2 32 10-44 99-50 107 0 11-21 27-35 58-36 85-2 47 119 55 194h-31v-121c0-29-5-49-35-48" id="br"/><path fill="#b2b2b2" d="M115-194c53 0 69 39 70 98 0 66-23 100-70 100C84 3 66-7 56-30L54 0H23l1-261h32v101c10-23 28-34 59-34zm-8 174c40 0 45-34 45-75 0-40-5-75-45-74-42 0-51 32-51 76 0 43 10 73 51 73" id="bs"/><g id="l"><use transform="matrix(0.04248971193415638,0,0,0.04248971193415638,0,0)" xlink:href="#bp"/><use transform="matrix(0.04248971193415638,0,0,0.04248971193415638,10.19753086419753,0)" xlink:href="#bh"/><use transform="matrix(0.04248971193415638,0,0,0.04248971193415638,18.695473251028805,0)" xlink:href="#bq"/><use transform="matrix(0.04248971193415638,0,0,0.04248971193415638,27.193415637860078,0)" xlink:href="#bi"/><use transform="matrix(0.04248971193415638,0,0,0.04248971193415638,31.442386831275712,0)" xlink:href="#bh"/><use transform="matrix(0.04248971193415638,0,0,0.04248971193415638,39.94032921810699,0)" xlink:href="#br"/><use transform="matrix(0.04248971193415638,0,0,0.04248971193415638,52.64475308641975,0)" xlink:href="#bs"/><use transform="matrix(0.04248971193415638,0,0,0.04248971193415638,61.142695473251024,0)" xlink:href="#bh"/><use transform="matrix(0.04248971193415638,0,0,0.04248971193415638,69.6406378600823,0)" xlink:href="#bj"/></g><path fill="#b2b2b2" d="M27 0v-27h64v-190l-56 39v-29l58-41h29v221h61V0H27" id="bt"/><path fill="#b2b2b2" d="M99-251c64 0 84 50 84 122C183-37 130 33 47-8c-14-7-20-23-25-40l30-5c6 39 69 39 84 7 9-19 16-44 16-74-10 22-31 35-62 35-49 0-73-33-73-83 0-54 28-83 82-83zm-1 141c31-1 51-18 51-49 0-36-14-67-51-67-34 0-49 23-49 58 0 34 15 58 49 58" id="bu"/><path fill="#b2b2b2" d="M68-38c1 34 0 65-14 84H32c9-13 17-26 17-46H33v-38h35" id="bv"/><g id="m"><use transform="matrix(0.04248971193415638,0,0,0.04248971193415638,0,0)" xlink:href="#bt"/><use transform="matrix(0.04248971193415638,0,0,0.04248971193415638,8.497942386831275,0)" xlink:href="#bu"/><use transform="matrix(0.04248971193415638,0,0,0.04248971193415638,16.99588477366255,0)" xlink:href="#bv"/></g><path fill="#b2b2b2" d="M101-251c82-7 93 87 43 132L82-64C71-53 59-42 53-27h129V0H18c2-99 128-94 128-182 0-28-16-43-45-43s-46 15-49 41l-32-3c6-41 34-60 81-64" id="bw"/><path fill="#b2b2b2" d="M101-251c68 0 85 55 85 127S166 4 100 4C33 4 14-52 14-124c0-73 17-127 87-127zm-1 229c47 0 54-49 54-102s-4-102-53-102c-51 0-55 48-55 102 0 53 5 102 54 102" id="bx"/><g id="n"><use transform="matrix(0.04248971193415638,0,0,0.04248971193415638,0,0)" xlink:href="#bw"/><use transform="matrix(0.04248971193415638,0,0,0.04248971193415638,8.497942386831275,0)" xlink:href="#bx"/><use transform="matrix(0.04248971193415638,0,0,0.04248971193415638,16.99588477366255,0)" xlink:href="#bw"/><use transform="matrix(0.04248971193415638,0,0,0.04248971193415638,25.493827160493822,0)" xlink:href="#bx"/></g><path fill="#333" d="M101-234c-31-9-42 10-38 44h38v23H63V0H32v-167H5v-23h27c-7-52 17-82 69-68v24" id="by"/><path fill="#333" d="M-5 72V49h209v23H-5" id="bz"/><path fill="#333" d="M135-143c-3-34-86-38-87 0 15 53 115 12 119 90S17 21 10-45l28-5c4 36 97 45 98 0-10-56-113-15-118-90-4-57 82-63 122-42 12 7 21 19 24 35" id="bA"/><path fill="#333" d="M100-194c62-1 85 37 85 99 1 63-27 99-86 99S16-35 15-95c0-66 28-99 85-99zM99-20c44 1 53-31 53-75 0-43-8-75-51-75s-53 32-53 75 10 74 51 75" id="bB"/><path fill="#333" d="M117-194c89-4 53 116 60 194h-32v-121c0-31-8-49-39-48C34-167 62-67 57 0H25l-1-190h30c1 10-1 24 2 32 11-22 29-35 61-36" id="bC"/><path fill="#333" d="M177-190C167-65 218 103 67 71c-23-6-38-20-44-43l32-5c15 47 100 32 89-28v-30C133-14 115 1 83 1 29 1 15-40 15-95c0-56 16-97 71-98 29-1 48 16 59 35 1-10 0-23 2-32h30zM94-22c36 0 50-32 50-73 0-42-14-75-50-75-39 0-46 34-46 75s6 73 46 73" id="bD"/><path fill="#333" d="M115-194c55 1 70 41 70 98S169 2 115 4C84 4 66-9 55-30l1 105H24l-1-265h31l2 30c10-21 28-34 59-34zm-8 174c40 0 45-34 45-75s-6-73-45-74c-42 0-51 32-51 76 0 43 10 73 51 73" id="bE"/><path fill="#333" d="M24 0v-261h32V0H24" id="bF"/><path fill="#333" d="M141-36C126-15 110 5 73 4 37 3 15-17 15-53c-1-64 63-63 125-63 3-35-9-54-41-54-24 1-41 7-42 31l-33-3c5-37 33-52 76-52 45 0 72 20 72 64v82c-1 20 7 32 28 27v20c-31 9-61-2-59-35zM48-53c0 20 12 33 32 33 41-3 63-29 60-74-43 2-92-5-92 41" id="bG"/><path fill="#333" d="M179-190L93 31C79 59 56 82 12 73V49c39 6 53-20 64-50L1-190h34L92-34l54-156h33" id="bH"/><g id="o"><use transform="matrix(0.05,0,0,0.05,0,0)" xlink:href="#by"/><use transform="matrix(0.05,0,0,0.05,5,0)" xlink:href="#bz"/><use transform="matrix(0.05,0,0,0.05,15,0)" xlink:href="#bA"/><use transform="matrix(0.05,0,0,0.05,24,0)" xlink:href="#bB"/><use transform="matrix(0.05,0,0,0.05,34,0)" xlink:href="#bC"/><use transform="matrix(0.05,0,0,0.05,44,0)" xlink:href="#bD"/><use transform="matrix(0.05,0,0,0.05,54,0)" xlink:href="#bE"/><use transform="matrix(0.05,0,0,0.05,64,0)" xlink:href="#bF"/><use transform="matrix(0.05,0,0,0.05,67.95,0)" xlink:href="#bG"/><use transform="matrix(0.05,0,0,0.05,77.95,0)" xlink:href="#bH"/><use transform="matrix(0.05,0,0,0.05,86.95,0)" xlink:href="#bA"/></g><path fill="#333" d="M137-138c1-29-70-34-71-4 15 46 118 7 119 86 1 83-164 76-172 9l43-7c4 19 20 25 44 25 33 8 57-30 24-41C81-84 22-81 20-136c-2-80 154-74 161-7" id="bI"/><path fill="#333" d="M110-194c64 0 96 36 96 99 0 64-35 99-97 99-61 0-95-36-95-99 0-62 34-99 96-99zm-1 164c35 0 45-28 45-65 0-40-10-65-43-65-34 0-45 26-45 65 0 36 10 65 43 65" id="bJ"/><path fill="#333" d="M135-194c87-1 58 113 63 194h-50c-7-57 23-157-34-157-59 0-34 97-39 157H25l-1-190h47c2 12-1 28 3 38 12-26 28-41 61-42" id="bK"/><path fill="#333" d="M195-6C206 82 75 100 31 46c-4-6-6-13-8-21l49-6c3 16 16 24 34 25 40 0 42-37 40-79-11 22-30 35-61 35-53 0-70-43-70-97 0-56 18-96 73-97 30 0 46 14 59 34l2-30h47zm-90-29c32 0 41-27 41-63 0-35-9-62-40-62-32 0-39 29-40 63 0 36 9 62 39 62" id="bL"/><path fill="#333" d="M135-194c53 0 70 44 70 98 0 56-19 98-73 100-31 1-45-17-59-34 3 33 2 69 2 105H25l-1-265h48c2 10 0 23 3 31 11-24 29-35 60-35zM114-30c33 0 39-31 40-66 0-38-9-64-40-64-56 0-55 130 0 130" id="bM"/><path fill="#333" d="M25 0v-261h50V0H25" id="bN"/><path fill="#333" d="M133-34C117-15 103 5 69 4 32 3 11-16 11-54c-1-60 55-63 116-61 1-26-3-47-28-47-18 1-26 9-28 27l-52-2c7-38 36-58 82-57s74 22 75 68l1 82c-1 14 12 18 25 15v27c-30 8-71 5-69-32zm-48 3c29 0 43-24 42-57-32 0-66-3-65 30 0 17 8 27 23 27" id="bO"/><path fill="#333" d="M123 10C108 53 80 86 19 72V37c35 8 53-11 59-39L3-190h52l48 148c12-52 28-100 44-148h51" id="bP"/><path fill="#333" d="M-4 44V30h207v14H-4" id="bQ"/><path fill="#333" d="M25-224v-37h50v37H25zM25 0v-190h50V0H25" id="bR"/><path fill="#333" d="M88-194c31-1 46 15 58 34l-1-101h50l1 261h-48c-2-10 0-23-3-31C134-8 116 4 84 4 32 4 16-41 15-95c0-56 19-97 73-99zm17 164c33 0 40-30 41-66 1-37-9-64-41-64s-38 30-39 65c0 43 13 65 39 65" id="bS"/><g id="p"><use transform="matrix(0.05,0,0,0.05,0,0)" xlink:href="#bI"/><use transform="matrix(0.05,0,0,0.05,10,0)" xlink:href="#bJ"/><use transform="matrix(0.05,0,0,0.05,20.950000000000003,0)" xlink:href="#bK"/><use transform="matrix(0.05,0,0,0.05,31.900000000000006,0)" xlink:href="#bL"/><use transform="matrix(0.05,0,0,0.05,42.85000000000001,0)" xlink:href="#bM"/><use transform="matrix(0.05,0,0,0.05,53.80000000000001,0)" xlink:href="#bN"/><use transform="matrix(0.05,0,0,0.05,58.80000000000001,0)" xlink:href="#bO"/><use transform="matrix(0.05,0,0,0.05,68.80000000000001,0)" xlink:href="#bP"/><use transform="matrix(0.05,0,0,0.05,78.80000000000001,0)" xlink:href="#bQ"/><use transform="matrix(0.05,0,0,0.05,88.80000000000001,0)" xlink:href="#bR"/><use transform="matrix(0.05,0,0,0.05,93.80000000000001,0)" xlink:href="#bS"/></g><path fill="#333" d="M33 0v-248h34V0H33" id="bT"/><path fill="#333" d="M59-47c-2 24 18 29 38 22v24C64 9 27 4 27-40v-127H5v-23h24l9-43h21v43h35v23H59v120" id="bU"/><path fill="#333" d="M100-194c63 0 86 42 84 106H49c0 40 14 67 53 68 26 1 43-12 49-29l28 8c-11 28-37 45-77 45C44 4 14-33 15-96c1-61 26-98 85-98zm52 81c6-60-76-77-97-28-3 7-6 17-6 28h103" id="bV"/><path fill="#333" d="M114-163C36-179 61-72 57 0H25l-1-190h30c1 12-1 29 2 39 6-27 23-49 58-41v29" id="bW"/><path fill="#333" d="M127-220V0H93v-220H8v-28h204v28h-85" id="bX"/><g id="q"><use transform="matrix(0.05,0,0,0.05,0,0)" xlink:href="#bT"/><use transform="matrix(0.05,0,0,0.05,5,0)" xlink:href="#bC"/><use transform="matrix(0.05,0,0,0.05,15,0)" xlink:href="#bU"/><use transform="matrix(0.05,0,0,0.05,20,0)" xlink:href="#bV"/><use transform="matrix(0.05,0,0,0.05,30,0)" xlink:href="#bD"/><use transform="matrix(0.05,0,0,0.05,40,0)" xlink:href="#bV"/><use transform="matrix(0.05,0,0,0.05,50,0)" xlink:href="#bW"/><use transform="matrix(0.05,0,0,0.05,55.95,0)" xlink:href="#bX"/><use transform="matrix(0.05,0,0,0.05,65.9,0)" xlink:href="#bH"/><use transform="matrix(0.05,0,0,0.05,74.9,0)" xlink:href="#bE"/><use transform="matrix(0.05,0,0,0.05,84.9,0)" xlink:href="#bV"/></g><path fill="#333" d="M84 4C-5 8 30-112 23-190h32v120c0 31 7 50 39 49 72-2 45-101 50-169h31l1 190h-30c-1-10 1-25-2-33-11 22-28 36-60 37" id="bY"/><path fill="#333" d="M24-231v-30h32v30H24zM24 0v-190h32V0H24" id="bZ"/><path fill="#333" d="M85-194c31 0 48 13 60 33l-1-100h32l1 261h-30c-2-10 0-23-3-31C134-8 116 4 85 4 32 4 16-35 15-94c0-66 23-100 70-100zm9 24c-40 0-46 34-46 75 0 40 6 74 45 74 42 0 51-32 51-76 0-42-9-74-50-73" id="ca"/><g id="r"><use transform="matrix(0.05,0,0,0.05,0,0)" xlink:href="#bY"/><use transform="matrix(0.05,0,0,0.05,10,0)" xlink:href="#bA"/><use transform="matrix(0.05,0,0,0.05,19,0)" xlink:href="#bV"/><use transform="matrix(0.05,0,0,0.05,29,0)" xlink:href="#bW"/><use transform="matrix(0.05,0,0,0.05,34.95,0)" xlink:href="#bz"/><use transform="matrix(0.05,0,0,0.05,44.95,0)" xlink:href="#bZ"/><use transform="matrix(0.05,0,0,0.05,48.900000000000006,0)" xlink:href="#ca"/></g><path fill="#333" d="M185-189c-5-48-123-54-124 2 14 75 158 14 163 119 3 78-121 87-175 55-17-10-28-26-33-46l33-7c5 56 141 63 141-1 0-78-155-14-162-118-5-82 145-84 179-34 5 7 8 16 11 25" id="cb"/><g id="s"><use transform="matrix(0.05,0,0,0.05,0,0)" xlink:href="#cb"/><use transform="matrix(0.05,0,0,0.05,12,0)" xlink:href="#bU"/><use transform="matrix(0.05,0,0,0.05,17,0)" xlink:href="#bW"/><use transform="matrix(0.05,0,0,0.05,22.95,0)" xlink:href="#bZ"/><use transform="matrix(0.05,0,0,0.05,26.899999999999995,0)" xlink:href="#bC"/><use transform="matrix(0.05,0,0,0.05,36.9,0)" xlink:href="#bD"/><use transform="matrix(0.05,0,0,0.05,46.9,0)" xlink:href="#bX"/><use transform="matrix(0.05,0,0,0.05,56.85,0)" xlink:href="#bH"/><use transform="matrix(0.05,0,0,0.05,65.85,0)" xlink:href="#bE"/><use transform="matrix(0.05,0,0,0.05,75.85,0)" xlink:href="#bV"/></g><g id="t"><use transform="matrix(0.05,0,0,0.05,0,0)" xlink:href="#bA"/><use transform="matrix(0.05,0,0,0.05,9,0)" xlink:href="#bB"/><use transform="matrix(0.05,0,0,0.05,19,0)" xlink:href="#bC"/><use transform="matrix(0.05,0,0,0.05,29,0)" xlink:href="#bD"/><use transform="matrix(0.05,0,0,0.05,39,0)" xlink:href="#bz"/><use transform="matrix(0.05,0,0,0.05,49,0)" xlink:href="#bZ"/><use transform="matrix(0.05,0,0,0.05,52.95,0)" xlink:href="#ca"/></g><path d="M141-36C126-15 110 5 73 4 37 3 15-17 15-53c-1-64 63-63 125-63 3-35-9-54-41-54-24 1-41 7-42 31l-33-3c5-37 33-52 76-52 45 0 72 20 72 64v82c-1 20 7 32 28 27v20c-31 9-61-2-59-35zM48-53c0 20 12 33 32 33 41-3 63-29 60-74-43 2-92-5-92 41" id="cc"/><path d="M114-163C36-179 61-72 57 0H25l-1-190h30c1 12-1 29 2 39 6-27 23-49 58-41v29" id="cd"/><path d="M59-47c-2 24 18 29 38 22v24C64 9 27 4 27-40v-127H5v-23h24l9-43h21v43h35v23H59v120" id="ce"/><path d="M24-231v-30h32v30H24zM24 0v-190h32V0H24" id="cf"/><path d="M135-143c-3-34-86-38-87 0 15 53 115 12 119 90S17 21 10-45l28-5c4 36 97 45 98 0-10-56-113-15-118-90-4-57 82-63 122-42 12 7 21 19 24 35" id="cg"/><path d="M-5 72V49h209v23H-5" id="ch"/><path d="M85-194c31 0 48 13 60 33l-1-100h32l1 261h-30c-2-10 0-23-3-31C134-8 116 4 85 4 32 4 16-35 15-94c0-66 23-100 70-100zm9 24c-40 0-46 34-46 75 0 40 6 74 45 74 42 0 51-32 51-76 0-42-9-74-50-73" id="ci"/><g id="u"><use transform="matrix(0.05,0,0,0.05,0,0)" xlink:href="#cc"/><use transform="matrix(0.05,0,0,0.05,10,0)" xlink:href="#cd"/><use transform="matrix(0.05,0,0,0.05,15.949999999999998,0)" xlink:href="#ce"/><use transform="matrix(0.05,0,0,0.05,20.95,0)" xlink:href="#cf"/><use transform="matrix(0.05,0,0,0.05,24.9,0)" xlink:href="#cg"/><use transform="matrix(0.05,0,0,0.05,33.9,0)" xlink:href="#ce"/><use transform="matrix(0.05,0,0,0.05,38.9,0)" xlink:href="#ch"/><use transform="matrix(0.05,0,0,0.05,48.9,0)" xlink:href="#cf"/><use transform="matrix(0.05,0,0,0.05,52.85,0)" xlink:href="#ci"/></g><path d="M210-169c-67 3-38 105-44 169h-31v-121c0-29-5-50-35-48C34-165 62-65 56 0H25l-1-190h30c1 10-1 24 2 32 10-44 99-50 107 0 11-21 27-35 58-36 85-2 47 119 55 194h-31v-121c0-29-5-49-35-48" id="cj"/><path d="M100-194c63 0 86 42 84 106H49c0 40 14 67 53 68 26 1 43-12 49-29l28 8c-11 28-37 45-77 45C44 4 14-33 15-96c1-61 26-98 85-98zm52 81c6-60-76-77-97-28-3 7-6 17-6 28h103" id="ck"/><g id="v"><use transform="matrix(0.05,0,0,0.05,0,0)" xlink:href="#cg"/><use transform="matrix(0.05,0,0,0.05,9,0)" xlink:href="#ce"/><use transform="matrix(0.05,0,0,0.05,14,0)" xlink:href="#cc"/><use transform="matrix(0.05,0,0,0.05,24,0)" xlink:href="#cd"/><use transform="matrix(0.05,0,0,0.05,29.950000000000003,0)" xlink:href="#ce"/><use transform="matrix(0.05,0,0,0.05,34.95,0)" xlink:href="#ch"/><use transform="matrix(0.05,0,0,0.05,44.95,0)" xlink:href="#ce"/><use transform="matrix(0.05,0,0,0.05,49.95,0)" xlink:href="#cf"/><use transform="matrix(0.05,0,0,0.05,53.900000000000006,0)" xlink:href="#cj"/><use transform="matrix(0.05,0,0,0.05,68.85000000000001,0)" xlink:href="#ck"/></g><path d="M127-220V0H93v-220H8v-28h204v28h-85" id="cl"/><path d="M115-194c55 1 70 41 70 98S169 2 115 4C84 4 66-9 55-30l1 105H24l-1-265h31l2 30c10-21 28-34 59-34zm-8 174c40 0 45-34 45-75s-6-73-45-74c-42 0-51 32-51 76 0 43 10 73 51 73" id="cm"/><path d="M179-190L93 31C79 59 56 82 12 73V49c39 6 53-20 64-50L1-190h34L92-34l54-156h33" id="cn"/><g id="w"><use transform="matrix(0.05,0,0,0.05,0,0)" xlink:href="#cl"/><use transform="matrix(0.05,0,0,0.05,10.3,0)" xlink:href="#cf"/><use transform="matrix(0.05,0,0,0.05,14.25,0)" xlink:href="#cj"/><use transform="matrix(0.05,0,0,0.05,29.200000000000003,0)" xlink:href="#ck"/><use transform="matrix(0.05,0,0,0.05,39.2,0)" xlink:href="#cg"/><use transform="matrix(0.05,0,0,0.05,48.2,0)" xlink:href="#ce"/><use transform="matrix(0.05,0,0,0.05,53.2,0)" xlink:href="#cc"/><use transform="matrix(0.05,0,0,0.05,63.2,0)" xlink:href="#cj"/><use transform="matrix(0.05,0,0,0.05,78.15,0)" xlink:href="#cm"/><use transform="matrix(0.05,0,0,0.05,88.15,0)" xlink:href="#cl"/><use transform="matrix(0.05,0,0,0.05,98.10000000000001,0)" xlink:href="#cn"/><use transform="matrix(0.05,0,0,0.05,107.10000000000001,0)" xlink:href="#cm"/><use transform="matrix(0.05,0,0,0.05,117.10000000000001,0)" xlink:href="#ck"/></g><path d="M100-194c62-1 85 37 85 99 1 63-27 99-86 99S16-35 15-95c0-66 28-99 85-99zM99-20c44 1 53-31 53-75 0-43-8-75-51-75s-53 32-53 75 10 74 51 75" id="co"/><path d="M117-194c89-4 53 116 60 194h-32v-121c0-31-8-49-39-48C34-167 62-67 57 0H25l-1-190h30c1 10-1 24 2 32 11-22 29-35 61-36" id="cp"/><g id="x"><use transform="matrix(0.05,0,0,0.05,0,0)" xlink:href="#cg"/><use transform="matrix(0.05,0,0,0.05,9,0)" xlink:href="#ck"/><use transform="matrix(0.05,0,0,0.05,19,0)" xlink:href="#cg"/><use transform="matrix(0.05,0,0,0.05,28,0)" xlink:href="#cg"/><use transform="matrix(0.05,0,0,0.05,37,0)" xlink:href="#ck"/><use transform="matrix(0.05,0,0,0.05,47,0)" xlink:href="#cf"/><use transform="matrix(0.05,0,0,0.05,50.95,0)" xlink:href="#co"/><use transform="matrix(0.05,0,0,0.05,60.95,0)" xlink:href="#cp"/><use transform="matrix(0.05,0,0,0.05,70.95,0)" xlink:href="#ch"/><use transform="matrix(0.05,0,0,0.05,80.95,0)" xlink:href="#cf"/><use transform="matrix(0.05,0,0,0.05,84.9,0)" xlink:href="#ci"/></g><path fill="#333" d="M30 0v-248h33v221h125V0H30" id="cq"/><g id="y"><use transform="matrix(0.05,0,0,0.05,0,0)" xlink:href="#cq"/><use transform="matrix(0.05,0,0,0.05,10,0)" xlink:href="#bB"/><use transform="matrix(0.05,0,0,0.05,20,0)" xlink:href="#bC"/><use transform="matrix(0.05,0,0,0.05,30,0)" xlink:href="#bD"/><use transform="matrix(0.05,0,0,0.05,40,0)" xlink:href="#bX"/><use transform="matrix(0.05,0,0,0.05,49.95,0)" xlink:href="#bH"/><use transform="matrix(0.05,0,0,0.05,58.95,0)" xlink:href="#bE"/><use transform="matrix(0.05,0,0,0.05,68.95,0)" xlink:href="#bV"/></g><path d="M24 0v-261h32V0H24" id="cr"/><path d="M108 0H70L1-190h34L89-25l56-165h34" id="cs"/><g id="z"><use transform="matrix(0.05,0,0,0.05,0,0)" xlink:href="#cr"/><use transform="matrix(0.05,0,0,0.05,3.95,0)" xlink:href="#ck"/><use transform="matrix(0.05,0,0,0.05,13.949999999999998,0)" xlink:href="#cs"/><use transform="matrix(0.05,0,0,0.05,22.95,0)" xlink:href="#ck"/><use transform="matrix(0.05,0,0,0.05,32.95,0)" xlink:href="#cr"/></g><path d="M96-169c-40 0-48 33-48 73s9 75 48 75c24 0 41-14 43-38l32 2c-6 37-31 61-74 61-59 0-76-41-82-99-10-93 101-131 147-64 4 7 5 14 7 22l-32 3c-4-21-16-35-41-35" id="ct"/><g id="A"><use transform="matrix(0.05,0,0,0.05,0,0)" xlink:href="#cr"/><use transform="matrix(0.05,0,0,0.05,3.95,0)" xlink:href="#co"/><use transform="matrix(0.05,0,0,0.05,13.949999999999998,0)" xlink:href="#ct"/><use transform="matrix(0.05,0,0,0.05,22.95,0)" xlink:href="#cc"/><use transform="matrix(0.05,0,0,0.05,32.95,0)" xlink:href="#ce"/><use transform="matrix(0.05,0,0,0.05,37.95,0)" xlink:href="#cf"/><use transform="matrix(0.05,0,0,0.05,41.900000000000006,0)" xlink:href="#co"/><use transform="matrix(0.05,0,0,0.05,51.900000000000006,0)" xlink:href="#cp"/></g><path d="M84 4C-5 8 30-112 23-190h32v120c0 31 7 50 39 49 72-2 45-101 50-169h31l1 190h-30c-1-10 1-25-2-33-11 22-28 36-60 37" id="cu"/><path d="M177-190C167-65 218 103 67 71c-23-6-38-20-44-43l32-5c15 47 100 32 89-28v-30C133-14 115 1 83 1 29 1 15-40 15-95c0-56 16-97 71-98 29-1 48 16 59 35 1-10 0-23 2-32h30zM94-22c36 0 50-32 50-73 0-42-14-75-50-75-39 0-46 34-46 75s6 73 46 73" id="cv"/><g id="B"><use transform="matrix(0.05,0,0,0.05,0,0)" xlink:href="#cu"/><use transform="matrix(0.05,0,0,0.05,10,0)" xlink:href="#cg"/><use transform="matrix(0.05,0,0,0.05,19,0)" xlink:href="#ck"/><use transform="matrix(0.05,0,0,0.05,29,0)" xlink:href="#cd"/><use transform="matrix(0.05,0,0,0.05,34.95,0)" xlink:href="#ch"/><use transform="matrix(0.05,0,0,0.05,44.95,0)" xlink:href="#cc"/><use transform="matrix(0.05,0,0,0.05,54.95,0)" xlink:href="#cv"/><use transform="matrix(0.05,0,0,0.05,64.95,0)" xlink:href="#ck"/><use transform="matrix(0.05,0,0,0.05,74.95,0)" xlink:href="#cp"/><use transform="matrix(0.05,0,0,0.05,84.95,0)" xlink:href="#ce"/></g><g id="C"><use transform="matrix(0.05,0,0,0.05,0,0)" xlink:href="#cn"/><use transform="matrix(0.05,0,0,0.05,9,0)" xlink:href="#ck"/><use transform="matrix(0.05,0,0,0.05,19,0)" xlink:href="#cc"/><use transform="matrix(0.05,0,0,0.05,29,0)" xlink:href="#cd"/></g><path d="M106-169C34-169 62-67 57 0H25v-261h32l-1 103c12-21 28-36 61-36 89 0 53 116 60 194h-32v-121c2-32-8-49-39-48" id="cw"/><g id="D"><use transform="matrix(0.05,0,0,0.05,0,0)" xlink:href="#cj"/><use transform="matrix(0.05,0,0,0.05,14.950000000000001,0)" xlink:href="#co"/><use transform="matrix(0.05,0,0,0.05,24.950000000000003,0)" xlink:href="#cp"/><use transform="matrix(0.05,0,0,0.05,34.95,0)" xlink:href="#ce"/><use transform="matrix(0.05,0,0,0.05,39.95,0)" xlink:href="#cw"/></g><g id="E"><use transform="matrix(0.05,0,0,0.05,0,0)" xlink:href="#ca"/><use transform="matrix(0.05,0,0,0.05,10,0)" xlink:href="#bz"/><use transform="matrix(0.05,0,0,0.05,20,0)" xlink:href="#bY"/><use transform="matrix(0.05,0,0,0.05,30,0)" xlink:href="#bA"/><use transform="matrix(0.05,0,0,0.05,39,0)" xlink:href="#bV"/><use transform="matrix(0.05,0,0,0.05,49,0)" xlink:href="#bW"/><use transform="matrix(0.05,0,0,0.05,54.95,0)" xlink:href="#bA"/></g><path fill="#333" d="M85 4C-2 5 27-109 22-190h50c7 57-23 150 33 157 60-5 35-97 40-157h50l1 190h-47c-2-12 1-28-3-38-12 25-28 42-61 42" id="cx"/><path fill="#333" d="M185-48c-13 30-37 53-82 52C43 2 14-33 14-96s30-98 90-98c62 0 83 45 84 108H66c0 31 8 55 39 56 18 0 30-7 34-22zm-45-69c5-46-57-63-70-21-2 6-4 13-4 21h74" id="cy"/><path fill="#333" d="M135-150c-39-12-60 13-60 57V0H25l-1-190h47c2 13-1 29 3 40 6-28 27-53 61-41v41" id="cz"/><g id="F"><use transform="matrix(0.05,0,0,0.05,0,0)" xlink:href="#cx"/><use transform="matrix(0.05,0,0,0.05,10.950000000000001,0)" xlink:href="#bI"/><use transform="matrix(0.05,0,0,0.05,20.950000000000003,0)" xlink:href="#cy"/><use transform="matrix(0.05,0,0,0.05,30.950000000000003,0)" xlink:href="#cz"/><use transform="matrix(0.05,0,0,0.05,37.95,0)" xlink:href="#bQ"/><use transform="matrix(0.05,0,0,0.05,47.95,0)" xlink:href="#bR"/><use transform="matrix(0.05,0,0,0.05,52.95,0)" xlink:href="#bS"/></g><path d="M101-234c-31-9-42 10-38 44h38v23H63V0H32v-167H5v-23h27c-7-52 17-82 69-68v24" id="cA"/><g id="G"><use transform="matrix(0.05,0,0,0.05,0,0)" xlink:href="#cA"/><use transform="matrix(0.05,0,0,0.05,5,0)" xlink:href="#cf"/><use transform="matrix(0.05,0,0,0.05,8.95,0)" xlink:href="#cd"/><use transform="matrix(0.05,0,0,0.05,14.899999999999999,0)" xlink:href="#cg"/><use transform="matrix(0.05,0,0,0.05,23.9,0)" xlink:href="#ce"/><use transform="matrix(0.05,0,0,0.05,28.899999999999995,0)" xlink:href="#ch"/><use transform="matrix(0.05,0,0,0.05,38.9,0)" xlink:href="#cp"/><use transform="matrix(0.05,0,0,0.05,48.9,0)" xlink:href="#cc"/><use transform="matrix(0.05,0,0,0.05,58.900000000000006,0)" xlink:href="#cj"/><use transform="matrix(0.05,0,0,0.05,73.85,0)" xlink:href="#ck"/></g><g id="H"><use transform="matrix(0.05,0,0,0.05,0,0)" xlink:href="#cr"/><use transform="matrix(0.05,0,0,0.05,3.95,0)" xlink:href="#cc"/><use transform="matrix(0.05,0,0,0.05,13.949999999999998,0)" xlink:href="#cg"/><use transform="matrix(0.05,0,0,0.05,22.95,0)" xlink:href="#ce"/><use transform="matrix(0.05,0,0,0.05,27.950000000000003,0)" xlink:href="#ch"/><use transform="matrix(0.05,0,0,0.05,37.95,0)" xlink:href="#cp"/><use transform="matrix(0.05,0,0,0.05,47.95,0)" xlink:href="#cc"/><use transform="matrix(0.05,0,0,0.05,57.95,0)" xlink:href="#cj"/><use transform="matrix(0.05,0,0,0.05,72.9,0)" xlink:href="#ck"/></g><g id="I"><use transform="matrix(0.05,0,0,0.05,0,0)" xlink:href="#bD"/><use transform="matrix(0.05,0,0,0.05,10,0)" xlink:href="#bV"/><use transform="matrix(0.05,0,0,0.05,20,0)" xlink:href="#bC"/><use transform="matrix(0.05,0,0,0.05,30,0)" xlink:href="#ca"/><use transform="matrix(0.05,0,0,0.05,40,0)" xlink:href="#bV"/><use transform="matrix(0.05,0,0,0.05,50,0)" xlink:href="#bW"/></g><path fill="#333" d="M108 0H70L1-190h34L89-25l56-165h34" id="cB"/><g id="J"><use transform="matrix(0.05,0,0,0.05,0,0)" xlink:href="#bF"/><use transform="matrix(0.05,0,0,0.05,3.95,0)" xlink:href="#bV"/><use transform="matrix(0.05,0,0,0.05,13.949999999999998,0)" xlink:href="#cB"/><use transform="matrix(0.05,0,0,0.05,22.95,0)" xlink:href="#bV"/><use transform="matrix(0.05,0,0,0.05,32.95,0)" xlink:href="#bF"/></g><g id="K"><use transform="matrix(0.05,0,0,0.05,0,0)" xlink:href="#ca"/><use transform="matrix(0.05,0,0,0.05,10,0)" xlink:href="#bz"/><use transform="matrix(0.05,0,0,0.05,20,0)" xlink:href="#bA"/><use transform="matrix(0.05,0,0,0.05,29,0)" xlink:href="#bB"/><use transform="matrix(0.05,0,0,0.05,39,0)" xlink:href="#bC"/><use transform="matrix(0.05,0,0,0.05,49,0)" xlink:href="#bD"/><use transform="matrix(0.05,0,0,0.05,59,0)" xlink:href="#bA"/></g><g id="L"><use transform="matrix(0.05,0,0,0.05,0,0)" xlink:href="#bI"/><use transform="matrix(0.05,0,0,0.05,10,0)" xlink:href="#bJ"/><use transform="matrix(0.05,0,0,0.05,20.950000000000003,0)" xlink:href="#bK"/><use transform="matrix(0.05,0,0,0.05,31.900000000000006,0)" xlink:href="#bL"/><use transform="matrix(0.05,0,0,0.05,42.85000000000001,0)" xlink:href="#bQ"/><use transform="matrix(0.05,0,0,0.05,52.85,0)" xlink:href="#bR"/><use transform="matrix(0.05,0,0,0.05,57.85,0)" xlink:href="#bS"/></g><g id="M"><use transform="matrix(0.05,0,0,0.05,0,0)" xlink:href="#ce"/><use transform="matrix(0.05,0,0,0.05,5,0)" xlink:href="#cf"/><use transform="matrix(0.05,0,0,0.05,8.95,0)" xlink:href="#ce"/><use transform="matrix(0.05,0,0,0.05,13.949999999999998,0)" xlink:href="#cr"/><use transform="matrix(0.05,0,0,0.05,17.9,0)" xlink:href="#ck"/></g><g id="N"><use transform="matrix(0.05,0,0,0.05,0,0)" xlink:href="#bH"/><use transform="matrix(0.05,0,0,0.05,9,0)" xlink:href="#bV"/><use transform="matrix(0.05,0,0,0.05,19,0)" xlink:href="#bG"/><use transform="matrix(0.05,0,0,0.05,29,0)" xlink:href="#bW"/></g><path d="M33 0v-248h34V0H33" id="cC"/><g id="O"><use transform="matrix(0.05,0,0,0.05,0,0)" xlink:href="#cC"/><use transform="matrix(0.05,0,0,0.05,5,0)" xlink:href="#cp"/><use transform="matrix(0.05,0,0,0.05,15,0)" xlink:href="#ce"/><use transform="matrix(0.05,0,0,0.05,20,0)" xlink:href="#ck"/><use transform="matrix(0.05,0,0,0.05,30,0)" xlink:href="#cv"/><use transform="matrix(0.05,0,0,0.05,40,0)" xlink:href="#ck"/><use transform="matrix(0.05,0,0,0.05,50,0)" xlink:href="#cd"/><use transform="matrix(0.05,0,0,0.05,55.95,0)" xlink:href="#cl"/><use transform="matrix(0.05,0,0,0.05,65.9,0)" xlink:href="#cn"/><use transform="matrix(0.05,0,0,0.05,74.9,0)" xlink:href="#cm"/><use transform="matrix(0.05,0,0,0.05,84.9,0)" xlink:href="#ck"/></g><g id="P"><use transform="matrix(0.05,0,0,0.05,0,0)" xlink:href="#ca"/><use transform="matrix(0.05,0,0,0.05,10,0)" xlink:href="#bY"/><use transform="matrix(0.05,0,0,0.05,20,0)" xlink:href="#bW"/><use transform="matrix(0.05,0,0,0.05,25.950000000000003,0)" xlink:href="#bG"/><use transform="matrix(0.05,0,0,0.05,35.95,0)" xlink:href="#bU"/><use transform="matrix(0.05,0,0,0.05,40.95,0)" xlink:href="#bZ"/><use transform="matrix(0.05,0,0,0.05,44.900000000000006,0)" xlink:href="#bB"/><use transform="matrix(0.05,0,0,0.05,54.900000000000006,0)" xlink:href="#bC"/></g><path d="M30-248c118-7 216 8 213 122C240-48 200 0 122 0H30v-248zM63-27c89 8 146-16 146-99s-60-101-146-95v194" id="cD"/><path d="M115-194c53 0 69 39 70 98 0 66-23 100-70 100C84 3 66-7 56-30L54 0H23l1-261h32v101c10-23 28-34 59-34zm-8 174c40 0 45-34 45-75 0-40-5-75-45-74-42 0-51 32-51 76 0 43 10 73 51 73" id="cE"/><g id="Q"><use transform="matrix(0.05,0,0,0.05,0,0)" xlink:href="#cD"/><use transform="matrix(0.05,0,0,0.05,12.950000000000001,0)" xlink:href="#co"/><use transform="matrix(0.05,0,0,0.05,22.950000000000003,0)" xlink:href="#cu"/><use transform="matrix(0.05,0,0,0.05,32.95,0)" xlink:href="#cE"/><use transform="matrix(0.05,0,0,0.05,42.95,0)" xlink:href="#cr"/><use transform="matrix(0.05,0,0,0.05,46.900000000000006,0)" xlink:href="#ck"/><use transform="matrix(0.05,0,0,0.05,56.900000000000006,0)" xlink:href="#cl"/><use transform="matrix(0.05,0,0,0.05,66.85000000000001,0)" xlink:href="#cn"/><use transform="matrix(0.05,0,0,0.05,75.85000000000001,0)" xlink:href="#cm"/><use transform="matrix(0.05,0,0,0.05,85.85000000000001,0)" xlink:href="#ck"/></g><g id="R"><use transform="matrix(0.05,0,0,0.05,0,0)" xlink:href="#ca"/><use transform="matrix(0.05,0,0,0.05,10,0)" xlink:href="#bz"/><use transform="matrix(0.05,0,0,0.05,20,0)" xlink:href="#bG"/><use transform="matrix(0.05,0,0,0.05,30,0)" xlink:href="#bW"/><use transform="matrix(0.05,0,0,0.05,35.95,0)" xlink:href="#bU"/><use transform="matrix(0.05,0,0,0.05,40.95,0)" xlink:href="#bZ"/><use transform="matrix(0.05,0,0,0.05,44.900000000000006,0)" xlink:href="#bA"/><use transform="matrix(0.05,0,0,0.05,53.900000000000006,0)" xlink:href="#bU"/><use transform="matrix(0.05,0,0,0.05,58.900000000000006,0)" xlink:href="#bA"/></g><path d="M133-34C117-15 103 5 69 4 32 3 11-16 11-54c-1-60 55-63 116-61 1-26-3-47-28-47-18 1-26 9-28 27l-52-2c7-38 36-58 82-57s74 22 75 68l1 82c-1 14 12 18 25 15v27c-30 8-71 5-69-32zm-48 3c29 0 43-24 42-57-32 0-66-3-65 30 0 17 8 27 23 27" id="cF"/><path d="M135-150c-39-12-60 13-60 57V0H25l-1-190h47c2 13-1 29 3 40 6-28 27-53 61-41v41" id="cG"/><path d="M115-3C79 11 28 4 28-45v-112H4v-33h27l15-45h31v45h36v33H77v99c-1 23 16 31 38 25v30" id="cH"/><path d="M25-224v-37h50v37H25zM25 0v-190h50V0H25" id="cI"/><path d="M137-138c1-29-70-34-71-4 15 46 118 7 119 86 1 83-164 76-172 9l43-7c4 19 20 25 44 25 33 8 57-30 24-41C81-84 22-81 20-136c-2-80 154-74 161-7" id="cJ"/><path d="M-4 44V30h207v14H-4" id="cK"/><path d="M88-194c31-1 46 15 58 34l-1-101h50l1 261h-48c-2-10 0-23-3-31C134-8 116 4 84 4 32 4 16-41 15-95c0-56 19-97 73-99zm17 164c33 0 40-30 41-66 1-37-9-64-41-64s-38 30-39 65c0 43 13 65 39 65" id="cL"/><g id="S"><use transform="matrix(0.05,0,0,0.05,0,0)" xlink:href="#cF"/><use transform="matrix(0.05,0,0,0.05,10,0)" xlink:href="#cG"/><use transform="matrix(0.05,0,0,0.05,17,0)" xlink:href="#cH"/><use transform="matrix(0.05,0,0,0.05,22.95,0)" xlink:href="#cI"/><use transform="matrix(0.05,0,0,0.05,27.950000000000003,0)" xlink:href="#cJ"/><use transform="matrix(0.05,0,0,0.05,37.95,0)" xlink:href="#cH"/><use transform="matrix(0.05,0,0,0.05,43.900000000000006,0)" xlink:href="#cK"/><use transform="matrix(0.05,0,0,0.05,53.900000000000006,0)" xlink:href="#cI"/><use transform="matrix(0.05,0,0,0.05,58.900000000000006,0)" xlink:href="#cL"/></g><g id="T"><use transform="matrix(0.05,0,0,0.05,0,0)" xlink:href="#cp"/><use transform="matrix(0.05,0,0,0.05,10,0)" xlink:href="#cc"/><use transform="matrix(0.05,0,0,0.05,20,0)" xlink:href="#cj"/><use transform="matrix(0.05,0,0,0.05,34.95,0)" xlink:href="#ck"/></g><g id="U"><use transform="matrix(0.05,0,0,0.05,0,0)" xlink:href="#cr"/><use transform="matrix(0.05,0,0,0.05,3.95,0)" xlink:href="#cc"/><use transform="matrix(0.05,0,0,0.05,13.949999999999998,0)" xlink:href="#ce"/><use transform="matrix(0.05,0,0,0.05,18.95,0)" xlink:href="#cf"/><use transform="matrix(0.05,0,0,0.05,22.9,0)" xlink:href="#ce"/><use transform="matrix(0.05,0,0,0.05,27.899999999999995,0)" xlink:href="#cu"/><use transform="matrix(0.05,0,0,0.05,37.9,0)" xlink:href="#ci"/><use transform="matrix(0.05,0,0,0.05,47.9,0)" xlink:href="#ck"/></g><path fill="#333" d="M30-248c118-7 216 8 213 122C240-48 200 0 122 0H30v-248zM63-27c89 8 146-16 146-99s-60-101-146-95v194" id="cM"/><path fill="#333" d="M115-194c53 0 69 39 70 98 0 66-23 100-70 100C84 3 66-7 56-30L54 0H23l1-261h32v101c10-23 28-34 59-34zm-8 174c40 0 45-34 45-75 0-40-5-75-45-74-42 0-51 32-51 76 0 43 10 73 51 73" id="cN"/><g id="V"><use transform="matrix(0.05,0,0,0.05,0,0)" xlink:href="#cM"/><use transform="matrix(0.05,0,0,0.05,12.950000000000001,0)" xlink:href="#bB"/><use transform="matrix(0.05,0,0,0.05,22.950000000000003,0)" xlink:href="#bY"/><use transform="matrix(0.05,0,0,0.05,32.95,0)" xlink:href="#cN"/><use transform="matrix(0.05,0,0,0.05,42.95,0)" xlink:href="#bF"/><use transform="matrix(0.05,0,0,0.05,46.900000000000006,0)" xlink:href="#bV"/><use transform="matrix(0.05,0,0,0.05,56.900000000000006,0)" xlink:href="#bX"/><use transform="matrix(0.05,0,0,0.05,66.85000000000001,0)" xlink:href="#bH"/><use transform="matrix(0.05,0,0,0.05,75.85000000000001,0)" xlink:href="#bE"/><use transform="matrix(0.05,0,0,0.05,85.85000000000001,0)" xlink:href="#bV"/></g><g id="W"><use transform="matrix(0.05,0,0,0.05,0,0)" xlink:href="#cr"/><use transform="matrix(0.05,0,0,0.05,3.95,0)" xlink:href="#co"/><use transform="matrix(0.05,0,0,0.05,13.949999999999998,0)" xlink:href="#cp"/><use transform="matrix(0.05,0,0,0.05,23.95,0)" xlink:href="#cv"/><use transform="matrix(0.05,0,0,0.05,33.95,0)" xlink:href="#cf"/><use transform="matrix(0.05,0,0,0.05,37.900000000000006,0)" xlink:href="#ce"/><use transform="matrix(0.05,0,0,0.05,42.900000000000006,0)" xlink:href="#cu"/><use transform="matrix(0.05,0,0,0.05,52.900000000000006,0)" xlink:href="#ci"/><use transform="matrix(0.05,0,0,0.05,62.900000000000006,0)" xlink:href="#ck"/></g><path fill="#333" d="M210-169c-67 3-38 105-44 169h-31v-121c0-29-5-50-35-48C34-165 62-65 56 0H25l-1-190h30c1 10-1 24 2 32 10-44 99-50 107 0 11-21 27-35 58-36 85-2 47 119 55 194h-31v-121c0-29-5-49-35-48" id="cO"/><g id="X"><use transform="matrix(0.05,0,0,0.05,0,0)" xlink:href="#ca"/><use transform="matrix(0.05,0,0,0.05,10,0)" xlink:href="#bz"/><use transform="matrix(0.05,0,0,0.05,20,0)" xlink:href="#bU"/><use transform="matrix(0.05,0,0,0.05,25,0)" xlink:href="#bZ"/><use transform="matrix(0.05,0,0,0.05,28.950000000000003,0)" xlink:href="#cO"/><use transform="matrix(0.05,0,0,0.05,43.9,0)" xlink:href="#bV"/></g><path d="M220-157c-53 9-28 100-34 157h-49v-107c1-27-5-49-29-50C55-147 81-57 75 0H25l-1-190h47c2 12-1 28 3 38 10-53 101-56 108 0 13-22 24-43 59-42 82 1 51 116 57 194h-49v-107c-1-25-5-48-29-50" id="cP"/><path d="M185-48c-13 30-37 53-82 52C43 2 14-33 14-96s30-98 90-98c62 0 83 45 84 108H66c0 31 8 55 39 56 18 0 30-7 34-22zm-45-69c5-46-57-63-70-21-2 6-4 13-4 21h74" id="cQ"/><g id="Y"><use transform="matrix(0.05,0,0,0.05,0,0)" xlink:href="#cJ"/><use transform="matrix(0.05,0,0,0.05,10,0)" xlink:href="#cH"/><use transform="matrix(0.05,0,0,0.05,15.949999999999998,0)" xlink:href="#cF"/><use transform="matrix(0.05,0,0,0.05,25.950000000000003,0)" xlink:href="#cG"/><use transform="matrix(0.05,0,0,0.05,32.95,0)" xlink:href="#cH"/><use transform="matrix(0.05,0,0,0.05,38.900000000000006,0)" xlink:href="#cK"/><use transform="matrix(0.05,0,0,0.05,48.900000000000006,0)" xlink:href="#cH"/><use transform="matrix(0.05,0,0,0.05,54.85,0)" xlink:href="#cI"/><use transform="matrix(0.05,0,0,0.05,59.85,0)" xlink:href="#cP"/><use transform="matrix(0.05,0,0,0.05,75.85000000000001,0)" xlink:href="#cQ"/></g><g id="Z"><use transform="matrix(0.05,0,0,0.05,0,0)" xlink:href="#cl"/><use transform="matrix(0.05,0,0,0.05,10.3,0)" xlink:href="#cf"/><use transform="matrix(0.05,0,0,0.05,14.25,0)" xlink:href="#cj"/><use transform="matrix(0.05,0,0,0.05,29.200000000000003,0)" xlink:href="#ck"/><use transform="matrix(0.05,0,0,0.05,39.2,0)" xlink:href="#cg"/><use transform="matrix(0.05,0,0,0.05,48.2,0)" xlink:href="#ce"/><use transform="matrix(0.05,0,0,0.05,53.2,0)" xlink:href="#cc"/><use transform="matrix(0.05,0,0,0.05,63.2,0)" xlink:href="#cj"/><use transform="matrix(0.05,0,0,0.05,78.15,0)" xlink:href="#cm"/></g><g id="aa"><use transform="matrix(0.05,0,0,0.05,0,0)" xlink:href="#cl"/><use transform="matrix(0.05,0,0,0.05,9.950000000000001,0)" xlink:href="#cn"/><use transform="matrix(0.05,0,0,0.05,18.950000000000003,0)" xlink:href="#cm"/><use transform="matrix(0.05,0,0,0.05,28.950000000000003,0)" xlink:href="#ck"/></g><g id="ab"><use transform="matrix(0.05,0,0,0.05,0,0)" xlink:href="#cw"/><use transform="matrix(0.05,0,0,0.05,10,0)" xlink:href="#co"/><use transform="matrix(0.05,0,0,0.05,20,0)" xlink:href="#cu"/><use transform="matrix(0.05,0,0,0.05,30,0)" xlink:href="#cd"/></g><g id="ac"><use transform="matrix(0.05,0,0,0.05,0,0)" xlink:href="#ci"/><use transform="matrix(0.05,0,0,0.05,10,0)" xlink:href="#cc"/><use transform="matrix(0.05,0,0,0.05,20,0)" xlink:href="#cn"/></g><path d="M206 0h-36l-40-164L89 0H53L-1-190h32L70-26l43-164h34l41 164 42-164h31" id="cR"/><path d="M143 0L79-87 56-68V0H24v-261h32v163l83-92h37l-77 82L181 0h-38" id="cS"/><g id="ad"><use transform="matrix(0.05,0,0,0.05,0,0)" xlink:href="#cR"/><use transform="matrix(0.05,0,0,0.05,12.950000000000001,0)" xlink:href="#ck"/><use transform="matrix(0.05,0,0,0.05,22.950000000000003,0)" xlink:href="#ck"/><use transform="matrix(0.05,0,0,0.05,32.95,0)" xlink:href="#cS"/></g><g id="ae"><use transform="matrix(0.05,0,0,0.05,0,0)" xlink:href="#cR"/><use transform="matrix(0.05,0,0,0.05,12.950000000000001,0)" xlink:href="#ck"/><use transform="matrix(0.05,0,0,0.05,22.950000000000003,0)" xlink:href="#ck"/><use transform="matrix(0.05,0,0,0.05,32.95,0)" xlink:href="#cS"/><use transform="matrix(0.05,0,0,0.05,41.95,0)" xlink:href="#ci"/><use transform="matrix(0.05,0,0,0.05,51.95,0)" xlink:href="#cc"/><use transform="matrix(0.05,0,0,0.05,61.95,0)" xlink:href="#cn"/></g><g id="af"><use transform="matrix(0.05,0,0,0.05,0,0)" xlink:href="#ci"/><use transform="matrix(0.05,0,0,0.05,10,0)" xlink:href="#cc"/><use transform="matrix(0.05,0,0,0.05,20,0)" xlink:href="#cn"/><use transform="matrix(0.05,0,0,0.05,29,0)" xlink:href="#ch"/><use transform="matrix(0.05,0,0,0.05,39,0)" xlink:href="#co"/><use transform="matrix(0.05,0,0,0.05,49,0)" xlink:href="#cA"/><use transform="matrix(0.05,0,0,0.05,54,0)" xlink:href="#ch"/><use transform="matrix(0.05,0,0,0.05,64,0)" xlink:href="#cR"/><use transform="matrix(0.05,0,0,0.05,76.95,0)" xlink:href="#ck"/><use transform="matrix(0.05,0,0,0.05,86.95,0)" xlink:href="#ck"/><use transform="matrix(0.05,0,0,0.05,96.95,0)" xlink:href="#cS"/></g><path d="M185-189c-5-48-123-54-124 2 14 75 158 14 163 119 3 78-121 87-175 55-17-10-28-26-33-46l33-7c5 56 141 63 141-1 0-78-155-14-162-118-5-82 145-84 179-34 5 7 8 16 11 25" id="cT"/><g id="ag"><use transform="matrix(0.05,0,0,0.05,0,0)" xlink:href="#cT"/><use transform="matrix(0.05,0,0,0.05,12,0)" xlink:href="#ce"/><use transform="matrix(0.05,0,0,0.05,17,0)" xlink:href="#cd"/><use transform="matrix(0.05,0,0,0.05,22.95,0)" xlink:href="#cf"/><use transform="matrix(0.05,0,0,0.05,26.899999999999995,0)" xlink:href="#cp"/><use transform="matrix(0.05,0,0,0.05,36.9,0)" xlink:href="#cv"/><use transform="matrix(0.05,0,0,0.05,46.9,0)" xlink:href="#cl"/><use transform="matrix(0.05,0,0,0.05,56.85,0)" xlink:href="#cn"/><use transform="matrix(0.05,0,0,0.05,65.85,0)" xlink:href="#cm"/><use transform="matrix(0.05,0,0,0.05,75.85,0)" xlink:href="#ck"/></g><path fill="#333" d="M206 0h-36l-40-164L89 0H53L-1-190h32L70-26l43-164h34l41 164 42-164h31" id="cU"/><path fill="#333" d="M106-169C34-169 62-67 57 0H25v-261h32l-1 103c12-21 28-36 61-36 89 0 53 116 60 194h-32v-121c2-32-8-49-39-48" id="cV"/><path fill="#333" d="M96-169c-40 0-48 33-48 73s9 75 48 75c24 0 41-14 43-38l32 2c-6 37-31 61-74 61-59 0-76-41-82-99-10-93 101-131 147-64 4 7 5 14 7 22l-32 3c-4-21-16-35-41-35" id="cW"/><g id="ah"><use transform="matrix(0.05,0,0,0.05,0,0)" xlink:href="#ca"/><use transform="matrix(0.05,0,0,0.05,10,0)" xlink:href="#by"/><use transform="matrix(0.05,0,0,0.05,15,0)" xlink:href="#bz"/><use transform="matrix(0.05,0,0,0.05,25,0)" xlink:href="#bF"/><use transform="matrix(0.05,0,0,0.05,28.950000000000003,0)" xlink:href="#bB"/><use transform="matrix(0.05,0,0,0.05,38.95,0)" xlink:href="#bD"/><use transform="matrix(0.05,0,0,0.05,48.95,0)" xlink:href="#bz"/><use transform="matrix(0.05,0,0,0.05,58.95,0)" xlink:href="#cU"/><use transform="matrix(0.05,0,0,0.05,71.9,0)" xlink:href="#bZ"/><use transform="matrix(0.05,0,0,0.05,75.85000000000001,0)" xlink:href="#bU"/><use transform="matrix(0.05,0,0,0.05,80.85000000000001,0)" xlink:href="#cV"/><use transform="matrix(0.05,0,0,0.05,90.85000000000001,0)" xlink:href="#bz"/><use transform="matrix(0.05,0,0,0.05,100.85000000000001,0)" xlink:href="#bA"/><use transform="matrix(0.05,0,0,0.05,109.85000000000001,0)" xlink:href="#cW"/><use transform="matrix(0.05,0,0,0.05,118.85000000000001,0)" xlink:href="#cV"/><use transform="matrix(0.05,0,0,0.05,128.85000000000002,0)" xlink:href="#bV"/><use transform="matrix(0.05,0,0,0.05,138.85000000000002,0)" xlink:href="#cO"/><use transform="matrix(0.05,0,0,0.05,153.8,0)" xlink:href="#bG"/></g><g id="ai"><use transform="matrix(0.05,0,0,0.05,0,0)" xlink:href="#bG"/><use transform="matrix(0.05,0,0,0.05,10,0)" xlink:href="#bW"/><use transform="matrix(0.05,0,0,0.05,15.949999999999998,0)" xlink:href="#bU"/><use transform="matrix(0.05,0,0,0.05,20.95,0)" xlink:href="#bZ"/><use transform="matrix(0.05,0,0,0.05,24.9,0)" xlink:href="#bA"/><use transform="matrix(0.05,0,0,0.05,33.9,0)" xlink:href="#bU"/></g><g id="aj"><use transform="matrix(0.05,0,0,0.05,0,0)" xlink:href="#bG"/><use transform="matrix(0.05,0,0,0.05,10,0)" xlink:href="#bY"/><use transform="matrix(0.05,0,0,0.05,20,0)" xlink:href="#bU"/><use transform="matrix(0.05,0,0,0.05,25,0)" xlink:href="#cV"/></g><path fill="#333" d="M190 0L58-211 59 0H30v-248h39L202-35l-2-213h31V0h-41" id="cX"/><g id="ak"><use transform="matrix(0.05,0,0,0.05,0,0)" xlink:href="#by"/><use transform="matrix(0.05,0,0,0.05,5,0)" xlink:href="#bZ"/><use transform="matrix(0.05,0,0,0.05,8.95,0)" xlink:href="#bW"/><use transform="matrix(0.05,0,0,0.05,14.899999999999999,0)" xlink:href="#bA"/><use transform="matrix(0.05,0,0,0.05,23.9,0)" xlink:href="#bU"/><use transform="matrix(0.05,0,0,0.05,28.899999999999995,0)" xlink:href="#cX"/><use transform="matrix(0.05,0,0,0.05,41.85,0)" xlink:href="#bG"/><use transform="matrix(0.05,0,0,0.05,51.85,0)" xlink:href="#cO"/><use transform="matrix(0.05,0,0,0.05,66.8,0)" xlink:href="#bV"/></g><g id="al"><use transform="matrix(0.05,0,0,0.05,0,0)" xlink:href="#cv"/><use transform="matrix(0.05,0,0,0.05,10,0)" xlink:href="#ck"/><use transform="matrix(0.05,0,0,0.05,20,0)" xlink:href="#cp"/><use transform="matrix(0.05,0,0,0.05,30,0)" xlink:href="#ci"/><use transform="matrix(0.05,0,0,0.05,40,0)" xlink:href="#ck"/><use transform="matrix(0.05,0,0,0.05,50,0)" xlink:href="#cd"/></g><g id="am"><use transform="matrix(0.05,0,0,0.05,0,0)" xlink:href="#cf"/><use transform="matrix(0.05,0,0,0.05,3.95,0)" xlink:href="#ce"/><use transform="matrix(0.05,0,0,0.05,8.95,0)" xlink:href="#ck"/><use transform="matrix(0.05,0,0,0.05,18.95,0)" xlink:href="#cj"/><use transform="matrix(0.05,0,0,0.05,33.9,0)" xlink:href="#cC"/><use transform="matrix(0.05,0,0,0.05,38.9,0)" xlink:href="#cp"/><use transform="matrix(0.05,0,0,0.05,48.9,0)" xlink:href="#cT"/><use transform="matrix(0.05,0,0,0.05,60.900000000000006,0)" xlink:href="#ck"/><use transform="matrix(0.05,0,0,0.05,70.9,0)" xlink:href="#cg"/><use transform="matrix(0.05,0,0,0.05,79.9,0)" xlink:href="#cg"/><use transform="matrix(0.05,0,0,0.05,88.9,0)" xlink:href="#cf"/><use transform="matrix(0.05,0,0,0.05,92.85000000000001,0)" xlink:href="#co"/><use transform="matrix(0.05,0,0,0.05,102.85000000000001,0)" xlink:href="#cp"/></g><path d="M190 0L58-211 59 0H30v-248h39L202-35l-2-213h31V0h-41" id="cY"/><g id="an"><use transform="matrix(0.05,0,0,0.05,0,0)" xlink:href="#cr"/><use transform="matrix(0.05,0,0,0.05,3.95,0)" xlink:href="#cc"/><use transform="matrix(0.05,0,0,0.05,13.949999999999998,0)" xlink:href="#cg"/><use transform="matrix(0.05,0,0,0.05,22.95,0)" xlink:href="#ce"/><use transform="matrix(0.05,0,0,0.05,27.950000000000003,0)" xlink:href="#cY"/><use transform="matrix(0.05,0,0,0.05,40.9,0)" xlink:href="#cc"/><use transform="matrix(0.05,0,0,0.05,50.9,0)" xlink:href="#cj"/><use transform="matrix(0.05,0,0,0.05,65.85,0)" xlink:href="#ck"/></g><g id="ao"><use transform="matrix(0.05,0,0,0.05,0,0)" xlink:href="#cr"/><use transform="matrix(0.05,0,0,0.05,3.95,0)" xlink:href="#ck"/><use transform="matrix(0.05,0,0,0.05,13.949999999999998,0)" xlink:href="#cp"/><use transform="matrix(0.05,0,0,0.05,23.95,0)" xlink:href="#cv"/><use transform="matrix(0.05,0,0,0.05,33.95,0)" xlink:href="#ce"/><use transform="matrix(0.05,0,0,0.05,38.95,0)" xlink:href="#cw"/></g><g id="ap"><use transform="matrix(0.05,0,0,0.05,0,0)" xlink:href="#cj"/><use transform="matrix(0.05,0,0,0.05,14.950000000000001,0)" xlink:href="#ck"/><use transform="matrix(0.05,0,0,0.05,24.950000000000003,0)" xlink:href="#ce"/><use transform="matrix(0.05,0,0,0.05,29.950000000000003,0)" xlink:href="#cw"/><use transform="matrix(0.05,0,0,0.05,39.95,0)" xlink:href="#co"/><use transform="matrix(0.05,0,0,0.05,49.95,0)" xlink:href="#ci"/></g><g id="aq"><use transform="matrix(0.05,0,0,0.05,0,0)" xlink:href="#cm"/><use transform="matrix(0.05,0,0,0.05,10,0)" xlink:href="#cc"/><use transform="matrix(0.05,0,0,0.05,20,0)" xlink:href="#cv"/><use transform="matrix(0.05,0,0,0.05,30,0)" xlink:href="#ck"/></g><g id="ar"><use transform="matrix(0.05,0,0,0.05,0,0)" xlink:href="#cd"/><use transform="matrix(0.05,0,0,0.05,5.95,0)" xlink:href="#ck"/><use transform="matrix(0.05,0,0,0.05,15.949999999999998,0)" xlink:href="#cv"/><use transform="matrix(0.05,0,0,0.05,25.950000000000003,0)" xlink:href="#cf"/><use transform="matrix(0.05,0,0,0.05,29.899999999999995,0)" xlink:href="#cg"/><use transform="matrix(0.05,0,0,0.05,38.9,0)" xlink:href="#ce"/><use transform="matrix(0.05,0,0,0.05,43.9,0)" xlink:href="#cd"/><use transform="matrix(0.05,0,0,0.05,49.85,0)" xlink:href="#cc"/><use transform="matrix(0.05,0,0,0.05,59.85,0)" xlink:href="#ce"/><use transform="matrix(0.05,0,0,0.05,64.85,0)" xlink:href="#cf"/><use transform="matrix(0.05,0,0,0.05,68.8,0)" xlink:href="#co"/><use transform="matrix(0.05,0,0,0.05,78.8,0)" xlink:href="#cp"/></g><g id="as"><use transform="matrix(0.05,0,0,0.05,0,0)" xlink:href="#cg"/><use transform="matrix(0.05,0,0,0.05,9,0)" xlink:href="#ck"/><use transform="matrix(0.05,0,0,0.05,19,0)" xlink:href="#cg"/><use transform="matrix(0.05,0,0,0.05,28,0)" xlink:href="#cg"/><use transform="matrix(0.05,0,0,0.05,37,0)" xlink:href="#cf"/><use transform="matrix(0.05,0,0,0.05,40.95,0)" xlink:href="#co"/><use transform="matrix(0.05,0,0,0.05,50.95,0)" xlink:href="#cp"/><use transform="matrix(0.05,0,0,0.05,60.95,0)" xlink:href="#cC"/><use transform="matrix(0.05,0,0,0.05,65.95,0)" xlink:href="#ci"/></g><g id="at"><use transform="matrix(0.05,0,0,0.05,0,0)" xlink:href="#cg"/><use transform="matrix(0.05,0,0,0.05,9,0)" xlink:href="#co"/><use transform="matrix(0.05,0,0,0.05,19,0)" xlink:href="#cp"/><use transform="matrix(0.05,0,0,0.05,29,0)" xlink:href="#cv"/></g><g id="au"><use transform="matrix(0.05,0,0,0.05,0,0)" xlink:href="#cg"/><use transform="matrix(0.05,0,0,0.05,9,0)" xlink:href="#ce"/><use transform="matrix(0.05,0,0,0.05,14,0)" xlink:href="#cc"/><use transform="matrix(0.05,0,0,0.05,24,0)" xlink:href="#ce"/><use transform="matrix(0.05,0,0,0.05,29,0)" xlink:href="#cu"/><use transform="matrix(0.05,0,0,0.05,39,0)" xlink:href="#cg"/></g><g id="av"><use transform="matrix(0.05,0,0,0.05,0,0)" xlink:href="#ce"/><use transform="matrix(0.05,0,0,0.05,5,0)" xlink:href="#cg"/></g><path d="M205 0l-28-72H64L36 0H1l101-248h38L239 0h-34zm-38-99l-47-123c-12 45-31 82-46 123h93" id="cZ"/><g id="aw"><use transform="matrix(0.05,0,0,0.05,0,0)" xlink:href="#cu"/><use transform="matrix(0.05,0,0,0.05,10,0)" xlink:href="#cg"/><use transform="matrix(0.05,0,0,0.05,19,0)" xlink:href="#ck"/><use transform="matrix(0.05,0,0,0.05,29,0)" xlink:href="#cd"/><use transform="matrix(0.05,0,0,0.05,34.95,0)" xlink:href="#cZ"/><use transform="matrix(0.05,0,0,0.05,46.95,0)" xlink:href="#cv"/><use transform="matrix(0.05,0,0,0.05,56.95,0)" xlink:href="#ck"/><use transform="matrix(0.05,0,0,0.05,66.95,0)" xlink:href="#cp"/><use transform="matrix(0.05,0,0,0.05,76.95,0)" xlink:href="#ce"/></g><g id="ax"><use transform="matrix(0.05,0,0,0.05,0,0)" xlink:href="#cu"/><use transform="matrix(0.05,0,0,0.05,10,0)" xlink:href="#cg"/><use transform="matrix(0.05,0,0,0.05,19,0)" xlink:href="#ck"/><use transform="matrix(0.05,0,0,0.05,29,0)" xlink:href="#cd"/><use transform="matrix(0.05,0,0,0.05,34.95,0)" xlink:href="#cC"/><use transform="matrix(0.05,0,0,0.05,39.95,0)" xlink:href="#ci"/></g><g id="ay"><use transform="matrix(0.05,0,0,0.05,0,0)" xlink:href="#ce"/><use transform="matrix(0.05,0,0,0.05,5,0)" xlink:href="#cg"/><use transform="matrix(0.05,0,0,0.05,14,0)" xlink:href="#ch"/><use transform="matrix(0.05,0,0,0.05,24,0)" xlink:href="#ce"/><use transform="matrix(0.05,0,0,0.05,29,0)" xlink:href="#cf"/><use transform="matrix(0.05,0,0,0.05,32.95,0)" xlink:href="#cj"/><use transform="matrix(0.05,0,0,0.05,47.900000000000006,0)" xlink:href="#ck"/><use transform="matrix(0.05,0,0,0.05,57.900000000000006,0)" xlink:href="#cg"/><use transform="matrix(0.05,0,0,0.05,66.9,0)" xlink:href="#ce"/><use transform="matrix(0.05,0,0,0.05,71.9,0)" xlink:href="#cc"/><use transform="matrix(0.05,0,0,0.05,81.9,0)" xlink:href="#cj"/><use transform="matrix(0.05,0,0,0.05,96.85000000000001,0)" xlink:href="#cm"/></g><g id="az"><use transform="matrix(0.05,0,0,0.05,0,0)" xlink:href="#bX"/><use transform="matrix(0.05,0,0,0.05,10.3,0)" xlink:href="#bZ"/><use transform="matrix(0.05,0,0,0.05,14.25,0)" xlink:href="#cO"/><use transform="matrix(0.05,0,0,0.05,29.200000000000003,0)" xlink:href="#bV"/><use transform="matrix(0.05,0,0,0.05,39.2,0)" xlink:href="#bA"/><use transform="matrix(0.05,0,0,0.05,48.2,0)" xlink:href="#bU"/><use transform="matrix(0.05,0,0,0.05,53.2,0)" xlink:href="#bG"/><use transform="matrix(0.05,0,0,0.05,63.2,0)" xlink:href="#cO"/><use transform="matrix(0.05,0,0,0.05,78.15,0)" xlink:href="#bE"/><use transform="matrix(0.05,0,0,0.05,88.15,0)" xlink:href="#bX"/><use transform="matrix(0.05,0,0,0.05,98.10000000000001,0)" xlink:href="#bH"/><use transform="matrix(0.05,0,0,0.05,107.10000000000001,0)" xlink:href="#bE"/><use transform="matrix(0.05,0,0,0.05,117.10000000000001,0)" xlink:href="#bV"/></g><g id="aA"><use transform="matrix(0.05,0,0,0.05,0,0)" xlink:href="#ca"/><use transform="matrix(0.05,0,0,0.05,10,0)" xlink:href="#by"/><use transform="matrix(0.05,0,0,0.05,15,0)" xlink:href="#bz"/><use transform="matrix(0.05,0,0,0.05,25,0)" xlink:href="#bA"/><use transform="matrix(0.05,0,0,0.05,34,0)" xlink:href="#bB"/><use transform="matrix(0.05,0,0,0.05,44,0)" xlink:href="#bC"/><use transform="matrix(0.05,0,0,0.05,54,0)" xlink:href="#bD"/><use transform="matrix(0.05,0,0,0.05,64,0)" xlink:href="#bA"/><use transform="matrix(0.05,0,0,0.05,73,0)" xlink:href="#bz"/><use transform="matrix(0.05,0,0,0.05,83,0)" xlink:href="#cU"/><use transform="matrix(0.05,0,0,0.05,95.95,0)" xlink:href="#bZ"/><use transform="matrix(0.05,0,0,0.05,99.9,0)" xlink:href="#bU"/><use transform="matrix(0.05,0,0,0.05,104.9,0)" xlink:href="#cV"/><use transform="matrix(0.05,0,0,0.05,114.9,0)" xlink:href="#bz"/><use transform="matrix(0.05,0,0,0.05,124.9,0)" xlink:href="#bA"/><use transform="matrix(0.05,0,0,0.05,133.9,0)" xlink:href="#cW"/><use transform="matrix(0.05,0,0,0.05,142.9,0)" xlink:href="#cV"/><use transform="matrix(0.05,0,0,0.05,152.9,0)" xlink:href="#bV"/><use transform="matrix(0.05,0,0,0.05,162.9,0)" xlink:href="#cO"/><use transform="matrix(0.05,0,0,0.05,177.85,0)" xlink:href="#bG"/></g><g id="aB"><use transform="matrix(0.05,0,0,0.05,0,0)" xlink:href="#bC"/><use transform="matrix(0.05,0,0,0.05,10,0)" xlink:href="#bY"/><use transform="matrix(0.05,0,0,0.05,20,0)" xlink:href="#cO"/><use transform="matrix(0.05,0,0,0.05,34.95,0)" xlink:href="#bz"/><use transform="matrix(0.05,0,0,0.05,44.95,0)" xlink:href="#bA"/><use transform="matrix(0.05,0,0,0.05,53.95,0)" xlink:href="#bB"/><use transform="matrix(0.05,0,0,0.05,63.95,0)" xlink:href="#bC"/><use transform="matrix(0.05,0,0,0.05,73.95,0)" xlink:href="#bD"/><use transform="matrix(0.05,0,0,0.05,83.95,0)" xlink:href="#bA"/></g><g id="aC"><use transform="matrix(0.05,0,0,0.05,0,0)" xlink:href="#bG"/><use transform="matrix(0.05,0,0,0.05,10,0)" xlink:href="#bW"/><use transform="matrix(0.05,0,0,0.05,15.949999999999998,0)" xlink:href="#bU"/><use transform="matrix(0.05,0,0,0.05,20.95,0)" xlink:href="#bZ"/><use transform="matrix(0.05,0,0,0.05,24.9,0)" xlink:href="#bA"/><use transform="matrix(0.05,0,0,0.05,33.9,0)" xlink:href="#bU"/><use transform="matrix(0.05,0,0,0.05,38.9,0)" xlink:href="#bz"/><use transform="matrix(0.05,0,0,0.05,48.9,0)" xlink:href="#bZ"/><use transform="matrix(0.05,0,0,0.05,52.85,0)" xlink:href="#ca"/></g><g id="aD"><use transform="matrix(0.05,0,0,0.05,0,0)" xlink:href="#bG"/><use transform="matrix(0.05,0,0,0.05,10,0)" xlink:href="#bW"/><use transform="matrix(0.05,0,0,0.05,15.949999999999998,0)" xlink:href="#bU"/><use transform="matrix(0.05,0,0,0.05,20.95,0)" xlink:href="#bZ"/><use transform="matrix(0.05,0,0,0.05,24.9,0)" xlink:href="#bA"/><use transform="matrix(0.05,0,0,0.05,33.9,0)" xlink:href="#bU"/><use transform="matrix(0.05,0,0,0.05,38.9,0)" xlink:href="#bz"/><use transform="matrix(0.05,0,0,0.05,48.9,0)" xlink:href="#bF"/><use transform="matrix(0.05,0,0,0.05,52.85,0)" xlink:href="#bG"/><use transform="matrix(0.05,0,0,0.05,62.85,0)" xlink:href="#bU"/><use transform="matrix(0.05,0,0,0.05,67.85,0)" xlink:href="#bZ"/><use transform="matrix(0.05,0,0,0.05,71.8,0)" xlink:href="#bU"/><use transform="matrix(0.05,0,0,0.05,76.8,0)" xlink:href="#bY"/><use transform="matrix(0.05,0,0,0.05,86.8,0)" xlink:href="#ca"/><use transform="matrix(0.05,0,0,0.05,96.8,0)" xlink:href="#bV"/></g><g id="aE"><use transform="matrix(0.05,0,0,0.05,0,0)" xlink:href="#cc"/><use transform="matrix(0.05,0,0,0.05,10,0)" xlink:href="#cd"/><use transform="matrix(0.05,0,0,0.05,15.949999999999998,0)" xlink:href="#ce"/><use transform="matrix(0.05,0,0,0.05,20.95,0)" xlink:href="#cf"/><use transform="matrix(0.05,0,0,0.05,24.9,0)" xlink:href="#cg"/><use transform="matrix(0.05,0,0,0.05,33.9,0)" xlink:href="#ce"/><use transform="matrix(0.05,0,0,0.05,38.9,0)" xlink:href="#ch"/><use transform="matrix(0.05,0,0,0.05,48.9,0)" xlink:href="#cr"/><use transform="matrix(0.05,0,0,0.05,52.85,0)" xlink:href="#co"/><use transform="matrix(0.05,0,0,0.05,62.85,0)" xlink:href="#cp"/><use transform="matrix(0.05,0,0,0.05,72.85,0)" xlink:href="#cv"/><use transform="matrix(0.05,0,0,0.05,82.85,0)" xlink:href="#cf"/><use transform="matrix(0.05,0,0,0.05,86.8,0)" xlink:href="#ce"/><use transform="matrix(0.05,0,0,0.05,91.8,0)" xlink:href="#cu"/><use transform="matrix(0.05,0,0,0.05,101.8,0)" xlink:href="#ci"/><use transform="matrix(0.05,0,0,0.05,111.80000000000001,0)" xlink:href="#ck"/></g><g id="aF"><use transform="matrix(0.05,0,0,0.05,0,0)" xlink:href="#cc"/><use transform="matrix(0.05,0,0,0.05,10,0)" xlink:href="#cd"/><use transform="matrix(0.05,0,0,0.05,15.949999999999998,0)" xlink:href="#ce"/><use transform="matrix(0.05,0,0,0.05,20.95,0)" xlink:href="#cf"/><use transform="matrix(0.05,0,0,0.05,24.9,0)" xlink:href="#cg"/><use transform="matrix(0.05,0,0,0.05,33.9,0)" xlink:href="#ce"/><use transform="matrix(0.05,0,0,0.05,38.9,0)" xlink:href="#ch"/><use transform="matrix(0.05,0,0,0.05,48.9,0)" xlink:href="#cr"/><use transform="matrix(0.05,0,0,0.05,52.85,0)" xlink:href="#co"/><use transform="matrix(0.05,0,0,0.05,62.85,0)" xlink:href="#ct"/><use transform="matrix(0.05,0,0,0.05,71.85,0)" xlink:href="#cc"/><use transform="matrix(0.05,0,0,0.05,81.85,0)" xlink:href="#ce"/><use transform="matrix(0.05,0,0,0.05,86.85,0)" xlink:href="#cf"/><use transform="matrix(0.05,0,0,0.05,90.8,0)" xlink:href="#co"/><use transform="matrix(0.05,0,0,0.05,100.8,0)" xlink:href="#cp"/></g><g id="aG"><use transform="matrix(0.05,0,0,0.05,0,0)" xlink:href="#cc"/><use transform="matrix(0.05,0,0,0.05,10,0)" xlink:href="#cd"/><use transform="matrix(0.05,0,0,0.05,15.949999999999998,0)" xlink:href="#ce"/><use transform="matrix(0.05,0,0,0.05,20.95,0)" xlink:href="#cf"/><use transform="matrix(0.05,0,0,0.05,24.9,0)" xlink:href="#cg"/><use transform="matrix(0.05,0,0,0.05,33.9,0)" xlink:href="#ce"/><use transform="matrix(0.05,0,0,0.05,38.9,0)" xlink:href="#ch"/><use transform="matrix(0.05,0,0,0.05,48.9,0)" xlink:href="#cp"/><use transform="matrix(0.05,0,0,0.05,58.900000000000006,0)" xlink:href="#cc"/><use transform="matrix(0.05,0,0,0.05,68.9,0)" xlink:href="#cj"/><use transform="matrix(0.05,0,0,0.05,83.85000000000001,0)" xlink:href="#ck"/></g><g id="aH"><use transform="matrix(0.05,0,0,0.05,0,0)" xlink:href="#cg"/><use transform="matrix(0.05,0,0,0.05,9,0)" xlink:href="#co"/><use transform="matrix(0.05,0,0,0.05,19,0)" xlink:href="#cp"/><use transform="matrix(0.05,0,0,0.05,29,0)" xlink:href="#cv"/><use transform="matrix(0.05,0,0,0.05,39,0)" xlink:href="#ch"/><use transform="matrix(0.05,0,0,0.05,49,0)" xlink:href="#cf"/><use transform="matrix(0.05,0,0,0.05,52.95,0)" xlink:href="#ci"/></g><g id="aI"><use transform="matrix(0.05,0,0,0.05,0,0)" xlink:href="#ci"/><use transform="matrix(0.05,0,0,0.05,10,0)" xlink:href="#cu"/><use transform="matrix(0.05,0,0,0.05,20,0)" xlink:href="#cd"/><use transform="matrix(0.05,0,0,0.05,25.950000000000003,0)" xlink:href="#cc"/><use transform="matrix(0.05,0,0,0.05,35.95,0)" xlink:href="#ce"/><use transform="matrix(0.05,0,0,0.05,40.95,0)" xlink:href="#cf"/><use transform="matrix(0.05,0,0,0.05,44.900000000000006,0)" xlink:href="#co"/><use transform="matrix(0.05,0,0,0.05,54.900000000000006,0)" xlink:href="#cp"/></g></defs></g></svg>